<svg width="320" height="309" viewBox="0 0 320 309" fill="none" xmlns="http://www.w3.org/2000/svg">
<path fill-rule="evenodd" clip-rule="evenodd" d="M96.5345 110.967L252.125 37.8212L301.408 59.7349C311.661 64.2934 320.027 77.2021 320 88.422L319.683 222.561C319.656 233.899 311.103 246.821 300.677 251.276L172.285 306.145C165.516 309.037 154.439 309.037 147.671 306.143L19.3225 251.277C8.89633 246.819 0.343651 233.896 0.316985 222.557L0.000121932 88.422C-0.0260219 77.2021 8.33999 64.2934 18.592 59.7349L147.278 2.51662C154.275 -0.594489 165.725 -0.594489 172.723 2.51662L224.982 25.7527L69.392 98.8983V145.869L96.5345 157.938V110.967ZM283.396 148.684L290.927 145.19C294.514 143.526 296.781 138.888 294.995 136.852L277.101 116.453C275.335 114.439 270.922 116.581 269.162 120.295L251.725 157.082C250.022 160.676 252.169 163.171 255.6 161.58L262.895 158.196L262.933 210.494C262.935 212.78 264.934 213.769 267.406 212.702L278.68 207.835C281.191 206.751 283.237 203.995 283.244 201.679L283.396 148.684ZM217.305 230.297C217.325 232.516 215.449 235.128 213.122 236.133L202.666 240.647C200.373 241.637 198.498 240.662 198.472 238.472L197.859 188.367L191.094 191.505C187.913 192.981 185.882 190.559 187.431 187.142L203.28 152.172C204.878 148.644 208.965 146.66 210.632 148.613L227.522 168.397C229.208 170.372 227.149 174.777 223.829 176.317L216.855 179.552L217.305 230.297ZM301.037 218.831C302.319 218.292 303.365 216.912 303.373 215.749L303.413 209.419C303.421 208.252 302.384 207.75 301.101 208.297L181.466 259.26C180.349 259.735 179.459 260.993 179.476 262.069L179.568 267.905C179.584 268.979 180.501 269.47 181.615 269.001L301.037 218.831Z" fill="url(#paint0_linear)"/>
<defs>
<linearGradient id="paint0_linear" x1="74.1335" y1="-23.6771" x2="27.2335" y2="164.659" gradientUnits="userSpaceOnUse">
<stop stop-color="#FECC04"/>
<stop offset="1" stop-color="#FF7500"/>
</linearGradient>
</defs>
</svg>
