<svg width="457" height="183" viewBox="0 0 457 183" fill="none" xmlns="http://www.w3.org/2000/svg">
<path fill-rule="evenodd" clip-rule="evenodd" d="M0 68.4814H42.4805C43.1315 59.611 46.1222 52.6734 51.4526 47.6685C56.7831 42.6636 63.5986 40.1611 71.8994 40.1611C78.7354 40.1611 84.2082 41.7073 88.3179 44.7998C92.4276 47.8923 94.4824 52.124 94.4824 57.4951C94.4824 61.8083 92.7328 65.4704 89.2334 68.4814C85.734 71.4925 81.0547 72.998 75.1953 72.998H61.1572V106.934H79.4678C85.4899 106.934 90.332 108.48 93.9941 111.572C97.6563 114.665 99.4873 118.367 99.4873 122.681C99.4873 128.703 96.9442 133.464 91.8579 136.963C86.7716 140.462 79.9764 142.212 71.4722 142.212C62.9679 142.212 56.0506 140.422 50.7202 136.841C45.3898 133.26 42.7246 128.621 42.7246 122.925C42.7246 120.483 43.2129 117.432 44.1895 113.77H3.17383C1.38345 117.35 0.488281 121.826 0.488281 127.197C0.488281 143.555 7.10036 156.86 20.3247 167.114C33.5491 177.368 50.6591 182.495 71.6553 182.495C92.4887 182.495 109.619 177.368 123.047 167.114C136.475 156.86 143.188 143.718 143.188 127.686C143.188 111.247 135.702 98.1853 120.728 88.501C132.365 78.6539 138.184 66.5691 138.184 52.2461C138.184 37.0279 132.304 24.5158 120.544 14.7095C108.785 4.90311 93.506 0 74.707 0C53.8736 0 36.7229 6.16449 23.2544 18.4937C9.7859 30.8228 2.03452 47.4852 0 68.4814ZM183.289 26.062C166.402 43.4368 157.959 67.1385 157.959 97.168C157.959 124.024 164.713 144.958 178.223 159.973C191.732 174.988 209.717 182.495 232.178 182.495C252.36 182.495 269.145 176.697 282.532 165.1C295.919 153.503 302.612 138.631 302.612 120.483C302.612 103.312 296.57 88.969 284.485 77.4536C272.4 65.9383 257.853 60.1807 240.845 60.1807C232.544 60.1807 224.386 61.6455 216.37 64.5752C208.354 67.5049 202.515 71.2077 198.853 75.6836C200.562 65.3483 206.584 56.8441 216.919 50.1709C227.254 43.4977 239.421 40.1611 253.418 40.1611C264.893 40.1611 275.553 41.6667 285.4 44.6777V6.22559C277.425 2.07517 265.422 0 249.39 0C222.209 0 200.175 8.68725 183.289 26.062ZM214.111 106.079C209.31 109.985 206.909 115.031 206.909 121.216C206.909 127.401 209.33 132.446 214.172 136.353C219.015 140.259 225.26 142.212 232.91 142.212C240.397 142.212 246.602 140.259 251.526 136.353C256.449 132.446 258.911 127.401 258.911 121.216C258.911 115.031 256.449 109.985 251.526 106.079C246.602 102.173 240.397 100.22 232.91 100.22C225.26 100.22 218.994 102.173 214.111 106.079ZM319.092 120.239C317.708 123.576 317.017 127.238 317.017 131.226C317.017 145.711 323.344 157.878 335.999 167.725C348.653 177.572 364.827 182.495 384.521 182.495C405.68 182.495 423.014 176.778 436.523 165.344C450.033 153.91 456.787 139.282 456.787 121.46C456.787 104.126 450.419 89.7828 437.683 78.4302C424.947 67.0776 408.976 61.4014 389.771 61.4014C380.493 61.4014 371.338 62.9883 362.305 66.1621L364.258 42.7246H440.308V3.66211H331.543L322.998 101.196L358.521 109.741C360.067 106.73 363.281 104.228 368.164 102.234C373.047 100.24 378.499 99.2432 384.521 99.2432C393.229 99.2432 400.167 101.278 405.334 105.347C410.502 109.416 413.086 114.624 413.086 120.972C413.086 127.645 410.299 133.057 404.724 137.207C399.15 141.357 391.683 143.433 382.324 143.433C374.512 143.433 368.144 141.927 363.22 138.916C358.297 135.905 355.835 131.999 355.835 127.197C355.835 125.244 356.16 122.925 356.812 120.239H319.092Z" fill="url(#paint0_linear)"/>
<defs>
<linearGradient id="paint0_linear" x1="215.049" y1="-88.5819" x2="95.5408" y2="219.55" gradientUnits="userSpaceOnUse">
<stop stop-color="#00EFFF"/>
<stop offset="1" stop-color="#009AFF"/>
</linearGradient>
</defs>
</svg>
