<svg width="46" height="42" viewBox="0 0 46 42" fill="none" xmlns="http://www.w3.org/2000/svg">
<path fill-rule="evenodd" clip-rule="evenodd" d="M37.4038 9.17515C42.2181 9.62237 46 13.6892 46 18.623C46 25.3299 39.094 31.0699 37.4038 32.3744V41.0226C37.4038 41.2622 37.3203 41.4986 37.1535 41.6711C36.9767 41.8538 36.7415 41.9473 36.5053 41.9473C36.3762 41.9473 36.2467 41.9195 36.1263 41.8633L24.7449 36.5599L13.1979 41.8654H13.1976C12.9596 41.9704 12.6876 41.9704 12.4493 41.8657C12.4486 41.8654 12.4483 41.8654 12.4483 41.8654L0.523621 36.3863C0.204605 36.2398 0 35.9205 0 35.5692V0.926005C0 0.686411 0.0831756 0.449978 0.249176 0.277484C0.521164 -0.0049704 0.931778 -0.0748814 1.27325 0.0821548L12.8231 5.38872L24.3687 0.0839115C24.5754 -0.012348 24.8113 -0.0264004 25.0282 0.0449159C25.0285 0.0449159 25.1254 0.0832088 25.1268 0.0839115L36.8844 5.56297C37.2013 5.71052 37.4038 6.02845 37.4038 6.37836V9.17515ZM11.9247 6.95486L1.79688 2.30174V34.9923L11.9247 39.6455V24.0715C11.9247 23.5747 12.3268 23.1721 12.8231 23.1721C13.319 23.1721 13.7215 23.5747 13.7215 24.0715V39.6455L23.849 34.9923V2.30174L13.7215 6.95486V15.3744C13.7215 15.8712 13.319 16.2738 12.8231 16.2738C12.3268 16.2738 11.9247 15.8712 11.9247 15.3744V6.95486ZM25.6458 34.9955V2.30982L35.6069 6.9517V9.17796C30.8069 9.63959 27.0412 13.6993 27.0412 18.623C27.0412 25.2571 33.869 30.9958 35.6069 32.3491V39.637L25.6458 34.9955ZM28.8381 18.623C28.8381 24.1744 34.7085 29.3201 36.5215 30.7769C38.3342 29.3253 44.2031 24.1941 44.2031 18.623C44.2031 14.383 40.7568 10.9331 36.5204 10.9331C32.2844 10.9331 28.8381 14.383 28.8381 18.623ZM36.5204 24.7439C33.1488 24.7439 30.4058 21.998 30.4058 18.623C30.4058 15.2483 33.1488 12.5024 36.5204 12.5024C39.8924 12.5024 42.6354 15.2479 42.6354 18.623C42.6354 21.998 39.8924 24.7439 36.5204 24.7439ZM36.5204 14.3011C34.1396 14.3011 32.2027 16.24 32.2027 18.6233C32.2027 21.0063 34.1396 22.9452 36.5204 22.9452C38.9013 22.9452 40.8385 21.0063 40.8385 18.6233C40.8385 16.24 38.9013 14.3011 36.5204 14.3011ZM12.1872 20.4484C12.3553 20.6156 12.5862 20.7119 12.8224 20.7119C12.8817 20.7119 12.9403 20.7066 12.9986 20.6947C13.0561 20.6831 13.1126 20.6662 13.1667 20.6437C13.2204 20.6212 13.2727 20.5931 13.3221 20.5608C13.3706 20.5274 13.4173 20.4898 13.4587 20.4484C13.5001 20.4069 13.5376 20.3613 13.5699 20.3117C13.6022 20.2632 13.6303 20.2109 13.6527 20.1572C13.6752 20.102 13.692 20.0454 13.704 19.9878C13.7156 19.9302 13.7219 19.8712 13.7219 19.8125C13.7219 19.5761 13.6257 19.3439 13.4587 19.1766C13.4173 19.1352 13.3706 19.0976 13.3221 19.0653C13.2727 19.033 13.2204 19.0049 13.1667 18.9824C13.1126 18.9599 13.0561 18.943 12.9986 18.9311C12.7066 18.8717 12.3956 18.968 12.1872 19.1766C12.1461 19.2181 12.1093 19.2641 12.0759 19.3133C12.0436 19.3621 12.0155 19.4141 11.9931 19.4689C11.9706 19.523 11.9538 19.5796 11.9422 19.6372C11.9303 19.6948 11.925 19.7542 11.925 19.8125C11.925 19.8712 11.9303 19.9302 11.9422 19.9878C11.9538 20.0454 11.9706 20.102 11.9931 20.1572C12.0155 20.2109 12.0436 20.2632 12.0759 20.3117C12.1082 20.3613 12.1461 20.4069 12.1872 20.4484ZM7.41913 11.5711C7.76973 11.2198 8.33897 11.2198 8.68958 11.5711C9.04053 11.9224 9.04053 12.4915 8.68958 12.8428L8.13121 13.4018L8.68958 13.9604C9.04053 14.3117 9.04053 14.8812 8.68958 15.2325C8.5141 15.4081 8.28423 15.4959 8.05435 15.4959C7.82448 15.4959 7.5946 15.4081 7.41913 15.2325L6.86076 14.6735L6.3024 15.2325C6.12692 15.4081 5.89705 15.4959 5.66682 15.4959C5.43695 15.4959 5.20708 15.4081 5.0316 15.2325C4.68065 14.8812 4.681 14.3117 5.0316 13.9604L5.58997 13.4018L5.0316 12.8428C4.681 12.4919 4.681 11.9224 5.0316 11.5711C5.38255 11.2198 5.95145 11.2198 6.3024 11.5711L6.86076 12.13L7.41913 11.5711Z" fill="#2B2D30"/>
</svg>
