<svg width="50" height="50" viewBox="0 0 50 50" fill="none" xmlns="http://www.w3.org/2000/svg">
<path fill-rule="evenodd" clip-rule="evenodd" d="M25.2314 1.06286V0L23.1385 1.51714L25.2314 3.03429V2.20571C37.9914 2.33286 48.3314 12.7386 48.3314 25.5257C48.3314 38.39 37.8657 48.8571 25 48.8571C12.1342 48.8571 1.66853 38.39 1.66853 25.5257H0.5271C0.5271 39.02 11.5042 50 25 50C38.4957 50 49.4728 39.02 49.4728 25.5257C49.4728 12.11 38.6185 1.19143 25.2314 1.06286ZM24.9157 46.8414V47.8843L27.0142 46.3671L24.9157 44.85V45.7C13.83 45.6557 4.82424 36.6229 4.82424 25.5286C4.82424 14.4043 13.8728 5.35286 25 5.35286C36.1242 5.35286 45.1728 14.4043 45.1728 25.5286H46.3171C46.3171 13.7729 36.7585 4.21 25 4.21C13.2414 4.21 3.68281 13.7743 3.68281 25.5286C3.68281 37.2543 13.2028 46.7957 24.9157 46.8414ZM20.6 30.1171C20.5714 30.0843 20.5385 30.05 20.5071 30.0171C20.4872 29.9954 20.4642 29.9755 20.441 29.9554C20.4291 29.9452 20.4172 29.9349 20.4057 29.9243L20.4142 29.9186C19.2414 28.7029 18.1042 27.4543 17.0071 26.1686C14.1385 22.8014 14.5157 18.28 17.4557 16.4157C17.4978 16.3879 17.5382 16.3571 17.5787 16.3262C17.659 16.2649 17.7398 16.2032 17.8357 16.1643C18.3653 15.9434 18.9414 15.8519 19.5176 15.7604C19.8396 15.7092 20.1617 15.658 20.4757 15.5843C21.5971 15.3271 23.7742 20.4743 22.3814 20.9214C22.2192 20.9713 21.9493 21.0296 21.6415 21.0959C20.9622 21.2425 20.0987 21.4287 19.8028 21.6529C19.4128 21.9429 19.5985 22.6529 19.9757 23.0986C20.6806 23.9262 21.6171 24.8197 22.5145 25.6759C22.8918 26.036 23.2623 26.3894 23.6057 26.7286V26.7271C23.6342 26.7571 23.67 26.7929 23.7014 26.8243C23.7207 26.8445 23.7439 26.8661 23.7666 26.8872C23.7775 26.8974 23.7883 26.9074 23.7985 26.9171L23.7957 26.9186C24.1473 27.2733 24.5135 27.6571 24.886 28.0475C25.7319 28.9341 26.6104 29.8549 27.4257 30.5471C27.8757 30.9257 28.5871 31.11 28.8714 30.7243C29.0938 30.4309 29.2787 29.5826 29.4258 28.9072C29.4951 28.5893 29.556 28.3098 29.6085 28.1443C30.0542 26.75 35.2 28.93 34.94 30.05C34.8699 30.3565 34.8202 30.6706 34.7705 30.9849C34.6781 31.5685 34.5857 32.1529 34.3628 32.6914C34.3218 32.7895 34.2576 32.8736 34.1929 32.9583C34.1652 32.9946 34.1375 33.0309 34.1114 33.0686C33.6814 33.7471 33.1042 34.2814 32.44 34.6786C33.5485 34.6671 34.5885 34.4043 35.5457 33.8771C38.1828 32.4257 40.0271 28.9914 40.0271 25.5286C40.0271 17.24 33.2857 10.4971 24.9985 10.4971C16.7114 10.4971 9.9671 17.24 9.9671 25.5286C9.9671 33.8143 16.7085 40.5586 24.9985 40.5586C25.5785 40.5586 26.0514 41.0329 26.0514 41.6143C26.0514 42.1957 25.5785 42.67 24.9985 42.67C15.5428 42.67 7.85281 34.98 7.85281 25.5271C7.85281 16.0729 15.5428 8.38143 24.9985 8.38143C34.4514 8.38143 42.1414 16.0729 42.1414 25.5271C42.1414 29.0771 40.4171 33.6086 36.57 35.7286C34.3385 36.9529 30.5471 37.8714 25.6085 34.5771C23.807 33.3729 22.5395 32.0741 21.4962 31.005C21.1818 30.6828 20.8878 30.3816 20.6057 30.11L20.6 30.1171Z" fill="#2B2D30"/>
</svg>
