<svg width="44" height="45" viewBox="0 0 44 45" fill="none" xmlns="http://www.w3.org/2000/svg">
<path fill-rule="evenodd" clip-rule="evenodd" d="M41.8675 20.7048H44V31.5804H41.8675V40.1811C41.8675 42.5329 39.9543 44.4461 37.6026 44.4461H4.26495C1.91322 44.4461 0 42.5329 0 40.1811V10.8952C0 8.54344 1.91322 6.63023 4.26495 6.63023H16.9353L28.2784 0.322387C28.658 0.111754 29.0879 0 29.5213 0C30.451 0 31.3083 0.504086 31.7587 1.31622L34.7144 6.63036H37.6026C39.9543 6.63036 41.8675 8.54358 41.8675 10.8953V20.7048ZM40.1334 10.6112C39.9892 9.33421 38.9161 8.33626 37.6026 8.33626H35.6636L36.9278 10.6112H40.1334ZM29.1084 1.81341C29.5084 1.5891 30.0467 1.74598 30.2676 2.14442L34.9761 10.6104H13.2879L29.1084 1.81341ZM37.6024 42.7402C39.0133 42.7402 40.1615 41.592 40.1615 40.1811V31.5813H33.9236C31.0269 31.5813 28.6692 29.2237 28.6692 26.3269V25.96C28.6692 23.0633 31.0268 20.7056 33.9236 20.7056H40.1615V12.3173H37.8764H6.7088H4.79811C4.3264 12.3173 3.94509 11.9352 3.94509 11.4643C3.94509 10.9934 4.3264 10.6113 4.79811 10.6113H9.77698L13.8679 8.33626H4.26495C2.8541 8.33626 1.7059 9.48446 1.7059 10.8953V40.1811C1.7059 41.592 2.8541 42.7402 4.26495 42.7402H37.6024ZM42.294 29.8744H41.8675H33.9236C31.9668 29.8744 30.3751 28.2828 30.3751 26.3259V25.9591C30.3751 24.0023 31.9667 22.4106 33.9236 22.4106H41.8675H42.294V29.8744ZM34.6529 28.0959C35.6935 28.0959 36.5363 27.2533 36.5363 26.2126C36.5363 25.1727 35.6936 24.3291 34.6529 24.3292C33.6124 24.3292 32.7696 25.172 32.7696 26.2126C32.7696 27.2532 33.6122 28.0959 34.6529 28.0959Z" fill="#2B2D30"/>
</svg>
