<svg width="38" height="48" viewBox="0 0 38 48" fill="none" xmlns="http://www.w3.org/2000/svg">
<path fill-rule="evenodd" clip-rule="evenodd" d="M6.00963 2.97222L7.06511 4.00663C10.5135 0.619412 16.126 0.619412 19.5758 4.00937L20.6313 2.97085C16.6007 -0.991197 10.0403 -0.989825 6.00963 2.97222ZM7.83437 4.76666C10.8584 1.79376 15.7797 1.79376 18.8065 4.76529L17.7525 5.80107C15.3092 3.40162 11.3317 3.40162 8.89124 5.80245L7.83437 4.76666ZM10.7774 7.65451C12.1791 6.27438 14.4646 6.27438 15.8677 7.65451L16.9232 6.61598C14.9379 4.66377 11.7072 4.66377 9.71915 6.61735L10.7774 7.65451ZM23.0619 21.6163L23.397 21.2871L25.9184 18.8067C26.6695 18.0727 27.88 18.0727 28.6227 18.8067L28.7721 18.9521C29.519 19.6861 29.519 20.8769 28.7721 21.6108L28.4412 21.9387L25.9142 24.4191C25.1645 25.1531 23.9583 25.1531 23.2113 24.4177L23.0647 24.2737C22.315 23.5397 22.315 22.3503 23.0619 21.6163ZM28.9592 22.4518L26.4336 24.9336C25.6909 25.6648 25.6909 26.8556 26.4336 27.5896L26.5788 27.735C27.3257 28.4676 28.5348 28.4676 29.2831 27.735L29.6182 27.4044L31.8059 25.2573L32.1368 24.9281C32.8865 24.1941 32.8837 23.0074 32.1396 22.2693L31.993 22.1253C31.2474 21.3927 30.0398 21.3886 29.2887 22.1239L28.9592 22.4518ZM26.0148 45.5999L37.2955 34.5135C38.2351 33.5875 38.2351 32.077 37.2941 31.1538L34.9249 28.8256L35.1873 28.5705L35.1845 28.5677L35.5154 28.2412C36.2623 27.5045 36.2651 26.3164 35.5154 25.5825L35.3702 25.4384C34.6191 24.7058 33.4114 24.7072 32.6645 25.4398L32.3336 25.7691L30.1459 27.9175L29.8108 28.2467C29.0653 28.9848 29.0653 30.1715 29.8108 30.9027L29.9602 31.0495C30.7085 31.7807 31.9176 31.7835 32.6631 31.0495L33.7381 29.9931L34.6526 30.8917L22.3346 42.9987L10.0584 30.937C10.2846 29.9437 10.4786 29.0081 10.5526 28.4388C10.619 27.9232 10.6913 27.4183 10.7612 26.9305L10.7612 26.9302L10.7612 26.9301C11.0821 24.6895 11.3516 22.8075 10.7635 21.8893C9.8434 20.4379 7.90837 20.3501 7.1419 22.7358C6.89897 23.4876 6.43825 25.0666 5.92308 26.8776L2.89627 23.906L15.2213 11.799L20.7639 17.2441L20.0268 17.9684V17.9698L19.6945 18.2991C18.949 19.033 18.949 20.2225 19.6945 20.9578L19.8397 21.1005C20.5922 21.8358 21.7985 21.8317 22.5412 21.1005L22.8791 20.7712L25.064 18.6228L25.3977 18.2922C26.1446 17.5569 26.1446 16.3688 25.3977 15.6362L25.2511 15.4894C24.5028 14.7582 23.2923 14.7555 22.5454 15.4894L21.9506 16.0752L15.4056 9.64651C14.4674 8.72185 12.9275 8.72185 11.9865 9.64651L0.705743 20.7301C-0.235248 21.6561 -0.235248 23.1679 0.705743 24.0912L5.40092 28.7063C5.28778 29.113 5.17311 29.5193 5.05971 29.9212L5.05965 29.9214L5.05953 29.9218L5.05933 29.9225C4.95597 30.2888 4.85366 30.6513 4.75452 31.007C4.21714 32.9175 3.74851 34.6044 3.532 35.3837L3.53181 35.3844C3.45087 35.6757 3.40522 35.84 3.40446 35.8415C2.65753 37.6072 2.48301 41.1041 6.47734 45.0291C6.83335 45.3804 7.18657 45.6808 7.5384 45.9593C7.62528 46.0278 7.71029 46.0917 7.7942 46.1548L7.84973 46.1966C8.1136 46.3942 8.37607 46.5739 8.63715 46.7317C8.67677 46.7561 8.71689 46.782 8.75687 46.8078L8.75691 46.8078C8.81132 46.8429 8.86547 46.8778 8.91777 46.9086C9.22911 47.087 9.53486 47.2352 9.84061 47.3655C9.95374 47.4155 10.0661 47.4556 10.1777 47.4954L10.1777 47.4954C10.2162 47.5092 10.2546 47.5229 10.293 47.537C10.4451 47.5919 10.6015 47.644 10.7509 47.6879C10.9338 47.7414 11.1181 47.7935 11.2982 47.8319C11.3054 47.8335 11.3128 47.835 11.3203 47.8364L11.3477 47.8412L11.3478 47.8412C11.3634 47.8438 11.3791 47.8465 11.3945 47.8498C15.5396 48.6935 18.5985 45.7082 18.5985 45.7082L20.6536 43.6915L22.5956 45.6012C23.5338 46.5245 25.0738 46.5245 26.0148 45.5999ZM5.77509 18.5803C5.88678 18.6928 6.07525 18.6901 6.18694 18.5789L9.79733 15.0312C9.91181 14.9201 9.91181 14.7376 9.79733 14.6265C9.68285 14.514 9.49716 14.514 9.38547 14.6251L5.77509 18.1729C5.6606 18.2854 5.6606 18.4664 5.77509 18.5803ZM29.089 37.5372C29.5609 37.0721 30.3274 37.0721 30.7993 37.5372C31.2698 38.0037 31.2698 38.7541 30.7993 39.2192C30.3274 39.6829 29.5637 39.6829 29.089 39.2178C28.6199 38.7541 28.6171 38.0023 29.089 37.5372Z" fill="#2B2D30"/>
</svg>
