<svg xmlns="http://www.w3.org/2000/svg" width="32" height="30" viewBox="0 0 32 30">
    <path d="M31.333 5.127a3.044 3.044 0 0 0-2.356-1.09H9.308c-.562 0-1.098.159-1.56.443L6.741.97A1.338 1.338 0 0 0 5.458 0H1.012C.456 0 0 .45 0 1.011v.106c0 .555.45 1.01 1.012 1.01h3.824L6.788 9.02l2.686 9.508a3.515 3.515 0 0 0-2.66 3.403 3.513 3.513 0 0 0 3.282 3.502 3.46 3.46 0 0 0-.185 1.414 3.443 3.443 0 0 0 3.182 3.146 3.438 3.438 0 0 0 3.678-3.423c0-.397-.066-.773-.192-1.13h4.023c-.166.47-.232.991-.172 1.526.185 1.626 1.528 2.908 3.169 3.027a3.44 3.44 0 0 0 3.685-3.423c0-1.91-1.588-3.436-3.493-3.436H10.354c-.655 0-1.21-.509-1.237-1.156a1.202 1.202 0 0 1 1.204-1.25h16.03a2.978 2.978 0 0 0 2.884-2.252L31.908 7.73a2.95 2.95 0 0 0-.575-2.604zM23.85 25.432c.622 0 1.131.51 1.131 1.13 0 .621-.509 1.13-1.13 1.13a1.13 1.13 0 0 1 0-2.26zm-10.512 0c.621 0 1.13.51 1.13 1.13 0 .621-.509 1.13-1.13 1.13a1.13 1.13 0 0 1 0-2.26zM9.183 9.006L8.667 7.19a.633.633 0 0 1 .112-.581.652.652 0 0 1 .53-.265h2.156l.59 2.67H9.182v-.007zm.648 2.3h2.726l.542 2.47h-2.573l-.695-2.47zm2.508 7.11a.665.665 0 0 1-.642-.49l-.523-1.85h2.428l.516 2.333h-1.78v.006zm5.762 0h-1.628l-.516-2.333h2.137v2.332h.007zm0-4.64h-2.646l-.543-2.47h3.189v2.47zm0-4.77h-3.692l-.589-2.67h4.28v2.67zm4.128 9.41h-1.82v-2.333h2.31l-.49 2.332zm.98-4.64h-2.8v-2.47h3.322l-.523 2.47zm-2.8-4.77v-2.67h4.367l-.562 2.67H20.41zm6.597 8.907a.666.666 0 0 1-.648.509h-1.774l.497-2.333h2.381l-.456 1.824zm1.025-4.136h-2.467l.522-2.472h2.56l-.615 2.472zm1.641-6.614l-.456 1.836h-2.647l.563-2.669h1.892c.284 0 .45.159.522.258.08.099.199.304.126.575z"/>
</svg>
