<svg xmlns="http://www.w3.org/2000/svg" width="22.857142857142918" height="22.285714285714306" style=""><rect id="backgroundrect" width="100%" height="100%" x="0" y="0" fill="none" stroke="none" class="" style=""/>
	
<g class="currentLayer" style=""><title>Layer 1</title><g fill="#1FC119" id="svg_1" class="">
	    <path fill-rule="nonzero" d="M21.114143104076383,5.060428775787354 a0.92,0.92 0 0 1 0.7230000000000002,1.087 L21.610143104076386,7.5714287757873535 L7.8571431040763855,4.723428775787353 l0.22600000000000006,-1.425 a0.9400000000000002,0.9400000000000002 0 0 1 1.111,-0.7070000000000002 l11.92,2.469 zm-5.33,2.7510000000000003 l0.20900000000000005,0.79 L20.857143104076385,9.683428775787352 l-0.8540000000000002,4.249 c-0.10900000000000003,0.54 -0.6170000000000002,0.8870000000000002 -1.13,0.773 l-1.35,-0.3000000000000001 l0.3600000000000001,1.366 c0.14200000000000004,0.536 -0.16000000000000006,1.097 -0.6680000000000003,1.245 l-12.04,3.517 c-0.51,0.15000000000000005 -1.043,-0.16800000000000007 -1.184,-0.7040000000000002 l-2.1,-7.961 c-0.14,-0.536 0.16000000000000006,-1.097 0.6700000000000004,-1.245 l3.725,-1.088 l0.5960000000000002,-2.965 l5.42,1.207 l2.3,-0.6710000000000004 c0.509,-0.15000000000000005 1.041,0.16800000000000007 1.183,0.7040000000000002 zm1.391,4.046 a0.4140000000000001,0.4140000000000001 0 0 0 0.3030000000000001,0.4900000000000001 l1.407,0.3130000000000001 c0.21000000000000005,0.047000000000000014 0.4200000000000001,-0.09700000000000006 0.464,-0.3180000000000001 l0.2980000000000001,-1.482 a0.4140000000000001,0.4140000000000001 0 0 0 -0.3020000000000001,-0.4880000000000001 l-1.408,-0.3140000000000001 a0.3940000000000002,0.3940000000000002 0 0 0 -0.464,0.3180000000000001 l-0.2980000000000001,1.481 zm-14.404,-0.4390000000000001 a0.19100000000000006,0.19100000000000006 0 0 0 -0.12400000000000003,0.23 l0.4100000000000001,1.557 l12.383000000000001,-3.617 l-0.3110000000000001,-1.18 l-0.1,-0.3760000000000001 a0.18300000000000005,0.18300000000000005 0 0 0 -0.17200000000000001,-0.137 a0.16800000000000007,0.16800000000000007 0 0 0 -0.04600000000000002,0.006000000000000004 l-0.8460000000000002,0.24800000000000005 l-7.862,2.2960000000000003 l-3.332,0.973 zm14.358,4.574 l-0.4700000000000001,-1.779 l-0.7550000000000002,-2.864 l-12.382,3.617 l1.224,4.643 c0.024000000000000007,0.09000000000000004 0.10500000000000002,0.137 0.17300000000000001,0.137 c0.015000000000000006,0 0.030000000000000013,-0.002000000000000001 0.04600000000000002,-0.006000000000000004 l12.04,-3.517 a0.17500000000000004,0.17500000000000004 0 0 0 0.10600000000000002,-0.08900000000000004 a0.19200000000000006,0.19200000000000006 0 0 0 0.018000000000000006,-0.14200000000000004 zm-9.742,-0.08700000000000004 l0.453,1.6350000000000002 a0.457,0.457 0 0 1 -0.3170000000000001,0.56 l-1.6350000000000002,0.454 a0.457,0.457 0 0 1 -0.56,-0.3170000000000001 l-0.454,-1.6350000000000002 a0.457,0.457 0 0 1 0.3170000000000001,-0.56 l1.6350000000000002,-0.454 a0.457,0.457 0 0 1 0.56,0.3170000000000001 z" id="svg_2"/>
	</g></g></svg>