<svg xmlns="http://www.w3.org/2000/svg" width="43" height="52" viewBox="0 0 43 52">
    <path fill="#4BD964" fill-rule="nonzero" d="M37.07 0a5.592 5.592 0 0 1 5.586 5.586v40.828A5.592 5.592 0 0 1 37.07 52H1.523A1.523 1.523 0 0 1 0 50.477V1.523C0 .682.682 0 1.523 0H37.07zm2.54 46.414V5.586c0-1.4-1.14-2.54-2.54-2.54H3.047v45.907H37.07c1.4 0 2.54-1.139 2.54-2.539zM21.327 7.72c6.72 0 12.188 5.467 12.188 12.187s-5.468 12.188-12.188 12.188c-6.72 0-12.187-5.468-12.187-12.188 0-6.72 5.467-12.187 12.187-12.187zm9.013 10.664a9.163 9.163 0 0 0-4.337-6.328c.7 1.78 1.14 3.976 1.272 6.328h3.065zm-9.013 10.664c.821 0 2.568-2.569 2.896-7.617h-5.791c.33 5.082 2.085 7.617 2.895 7.617zm-2.895-10.664h5.79c-.33-5.082-2.085-7.617-2.895-7.617-.821 0-2.568 2.568-2.895 7.617zm-1.781-6.328a9.163 9.163 0 0 0-4.337 6.328h3.065c.133-2.352.572-4.548 1.272-6.328zm-4.337 9.375a9.163 9.163 0 0 0 4.337 6.327c-.7-1.78-1.14-3.975-1.272-6.327h-3.065zm13.69 6.327a9.163 9.163 0 0 0 4.336-6.327h-3.065c-.133 2.351-.572 4.547-1.272 6.327zm5.987 7.384c.842 0 1.524.682 1.524 1.523v6.094c0 .841-.682 1.523-1.524 1.523H10.664a1.523 1.523 0 0 1-1.523-1.523v-6.094c0-.841.682-1.523 1.523-1.523h21.328zm-1.523 6.093v-3.047H12.187v3.047H30.47z"/>
</svg>
