<svg xmlns="http://www.w3.org/2000/svg" width="54" height="60" viewBox="0 0 54 60">
    <path fill="#4BD964" fill-rule="nonzero" d="M39.913 46.406c.648 0 1.174.525 1.174 1.172a1.173 1.173 0 0 1-2.348 0c0-.647.526-1.172 1.174-1.172zm2.89-3.79C49.291 44.777 54 51.595 54 58.829c0 .647-.526 1.172-1.174 1.172H1.174A1.173 1.173 0 0 1 0 58.828c0-7.234 4.709-14.052 11.196-16.211l5.58-1.856 2.002-3.998a12.71 12.71 0 0 1-2.486-3.6l-1.031.001a3.523 3.523 0 0 1-3.522-3.516v-1.373a3.522 3.522 0 0 1-2.348-3.314v-7.383C9.391 7.863 17.266 0 27 0c9.71 0 17.609 7.886 17.609 17.578v7.383a3.523 3.523 0 0 1-3.522 3.516h-2.136l-.25 1.494c-.423 2.53-1.676 4.957-3.48 6.79l2.003 4 5.58 1.856zm-.542-17.655V18.75h-2.382l-.006.202a76.368 76.368 0 0 1-.578 7.18h1.792c.647 0 1.174-.525 1.174-1.171zm-29.348 1.172h1.792a75.988 75.988 0 0 1-.57-7v-.002-.012a69.174 69.174 0 0 1-.013-.369h-2.383v6.21c0 .647.527 1.173 1.174 1.173zm2.348 4.687h.212a12.353 12.353 0 0 1-.174-.848l-.25-1.495h-.962v1.171c0 .647.527 1.172 1.174 1.172zm-1.172-14.414c.084-6.472 5.364-11.718 11.86-11.718h2.102c6.496 0 11.776 5.246 11.86 11.718h2.305C41.615 8.551 35.02 2.344 27 2.344c-8.056 0-14.622 6.208-15.216 14.062h2.305zm11.86-9.375c-4.93 0-8.97 3.772-9.462 8.544a10.628 10.628 0 0 1 8.165-3.856c.311 0 .61.123.83.343a18.875 18.875 0 0 0 10.606 5.294l1.468.209v-.011c.006-.293.01-.614.01-.983.002-5.245-4.255-9.54-9.515-9.54h-2.102zm-8.042 23.79h3.423a3.523 3.523 0 0 1 3.322-2.344H27a3.523 3.523 0 0 1 3.522 3.515A3.518 3.518 0 0 1 27 35.508h-2.348c-1.53 0-2.835-.98-3.32-2.344H18.94c1.357 2.27 3.46 3.855 5.754 4.427a9.564 9.564 0 0 0 4.615 0c3.673-.917 6.455-4.283 7.077-8.005.216-1.306.301-1.773.409-2.5v-.002c.338-2.258.574-4.714.69-7.162l-1.728-.246a21.248 21.248 0 0 1-11.568-5.6 8.267 8.267 0 0 0-6.11 3.268l-1.58 2.103c.149 3.68.821 9.422 1.409 11.373zm6.646 9.142l2.292 2.288 2.075-2.19c-.635.104-1.278.158-1.92.158-.82 0-1.641-.087-2.447-.256zm.678 3.992l-4.953-4.945L18.88 41.8a44.61 44.61 0 0 0 2.628 6.084l3.724-3.93zm8.292-5.342l-5.017 5.296 3.985 3.978a44.597 44.597 0 0 0 2.629-6.086l-1.597-3.188zm-10.045-6.62c0 .645.527 1.171 1.174 1.171H27a1.173 1.173 0 1 0 0-2.344h-2.348c-.648 0-1.174.525-1.174 1.172zM2.395 57.655h22.49l-1.443-2.314a46.981 46.981 0 0 1-3.214-4.898l-.006-.012a46.938 46.938 0 0 1-3.342-7.236L11.94 44.84C6.73 46.574 2.86 51.85 2.395 57.656zM27 56.612c1.673-2.68 1.592-2.559 1.65-2.635a44.627 44.627 0 0 0 2.654-3.96l-4.412-4.405-4.186 4.42a44.676 44.676 0 0 0 2.645 3.945c.02.027.04.055.057.083L27 56.612zm2.114 1.044h22.491c-.465-5.805-4.335-11.082-9.544-12.816l-4.941-1.644a46.9 46.9 0 0 1-3.307 7.174l-.002.004-.017.03a46.964 46.964 0 0 1-3.236 4.938l-1.444 2.314zm18.963-4.742a1.175 1.175 0 0 1-2.1 1.047 9.362 9.362 0 0 0-2.655-3.217 1.17 1.17 0 0 1-.214-1.643 1.175 1.175 0 0 1 1.646-.215 11.72 11.72 0 0 1 3.323 4.028z"/>
</svg>
