<svg xmlns="http://www.w3.org/2000/svg" width="52" height="52" viewBox="0 0 52 52">
    <path fill="#4BD964" fill-rule="nonzero" d="M16.443 34.84V20.73H13.18v-3.616h7.764V34.84h-4.501zm21.42-13.15c0 1.542-.835 2.908-2.226 3.667 1.947.809 3.161 2.503 3.161 4.476 0 3.186-2.832 5.21-7.258 5.21s-7.258-1.998-7.258-5.134c0-2.023 1.315-3.743 3.363-4.552-1.492-.835-2.453-2.25-2.453-3.793 0-2.833 2.479-4.628 6.323-4.628 3.894 0 6.347 1.846 6.347 4.754zm-9.333 7.764c0 1.492 1.063 2.327 3.01 2.327 1.947 0 3.035-.81 3.035-2.327 0-1.467-1.088-2.302-3.035-2.302s-3.01.835-3.01 2.302zm.456-7.511c0 1.264.91 1.972 2.554 1.972 1.644 0 2.554-.708 2.554-1.972 0-1.315-.91-2.048-2.554-2.048-1.644 0-2.554.733-2.554 2.048zm17.303-2.83h4.768c.611 2.232.921 4.536.921 6.876 0 14.33-11.658 25.99-25.989 25.99C11.66 51.979 0 40.319 0 25.989 0 11.66 11.66 0 25.99 0c2.34 0 4.644.31 6.874.922V5.69a21.356 21.356 0 0 0-6.875-1.128c-11.815 0-21.427 9.612-21.427 21.427s9.612 21.427 21.427 21.427 21.428-9.612 21.428-21.427c0-2.356-.38-4.666-1.128-6.875zM44.992 6.973h4.983v3.583h-4.983v4.983h-3.584v-4.983h-4.953V6.972h4.953V1.989h3.584v4.983z"/>
</svg>
