<svg xmlns="http://www.w3.org/2000/svg" width="74" height="54" viewBox="0 0 74 54">
    <path fill="#4BD964" fill-rule="nonzero" d="M59.76 17.265c7.75 0 14.056 6.31 14.056 14.067 0 .654-.07 1.72-.179 2.988v.013c-.379 4.396-1.226 11.194-1.271 11.562l-.008.044-.009.05-.013.053-.013.046a1.057 1.057 0 0 1-.025.068l-.01.028a1.05 1.05 0 0 1-.045.092 1.085 1.085 0 0 1-.052.087l-.015.02a1.18 1.18 0 0 1-.045.06c-.007.01-.015.018-.023.027a1.148 1.148 0 0 1-.043.048l-.03.028a1 1 0 0 1-.043.04l-.035.028-.043.032a.966.966 0 0 1-.174.1l-.044.018a1.012 1.012 0 0 1-.053.02l-.042.014-.063.016-.035.008c-.027.006-.055.01-.084.013l-.018.003c-.035.003-.07.005-.107.005h-4.817C65.945 50.876 62.49 54 58.317 54s-7.628-3.124-8.16-7.157H32.815C32.282 50.876 28.827 54 24.654 54s-7.628-3.124-8.16-7.157h-4.813-.002c-.034 0-.07-.001-.105-.005h-.002a1.095 1.095 0 0 1-.095-.014l-.013-.002a1.157 1.157 0 0 1-.098-.025l-.007-.002a1.145 1.145 0 0 1-.083-.03l-.018-.007c-.02-.008-.039-.018-.058-.027a1.073 1.073 0 0 1-.25-.172l-.037-.033-.006-.007a1.082 1.082 0 0 1-.257-.423l-.004-.012-.011-.043c-.006-.02-.012-.04-.016-.061l-.003-.024a1.056 1.056 0 0 1-.013-.083c-.001-.009 0-.018-.002-.027a1.121 1.121 0 0 1-.004-.082v-.003l.003-.06c.001-.015 0-.03.002-.044v-.005l.001-.004 1.117-11.54v-.003l.723-7.462H8.795a1.082 1.082 0 0 1 0-2.164h3.858l1.327-13.707H1.08a1.082 1.082 0 0 1 0-2.164H14.19l.739-7.63V.973l.004-.026.013-.082c0-.004.002-.008.003-.011A1.082 1.082 0 0 1 16.003 0H28.98a1.083 1.083 0 0 1 0 2.164H16.986l-.624 6.444h11.176a1.082 1.082 0 0 1 0 2.164H16.152L14.825 24.48h6.945a1.082 1.082 0 0 1 0 2.164h-7.154l-.629 6.492H51.56l.543-6.239v-.005l2.152-24.727h-20.95a1.083 1.083 0 0 1 0-2.164H55.434l.038.002c.019 0 .037 0 .056.002l.01.001.052.007c.019.003.038.005.056.01.015.002.029.006.044.01l.062.016.028.01c.025.008.05.016.074.027l.01.004c.388.168.652.554.652.992v.008c0 .029-.001.058-.004.087l-1.4 16.089h4.647zm-4.837 2.164l-.565 6.492h4.424l.565-6.492h-4.424zM24.655 51.836c3.347 0 6.07-2.726 6.07-6.075 0-3.35-2.723-6.075-6.07-6.075-3.347 0-6.07 2.725-6.07 6.075s2.722 6.075 6.07 6.075zm33.662 0c3.347 0 6.07-2.726 6.07-6.075 0-3.35-2.723-6.075-6.07-6.075-3.347 0-6.07 2.725-6.07 6.075s2.723 6.075 6.07 6.075zm12.02-7.158c.227-1.87.735-6.144 1.05-9.473-2.477-.408-3.934-2.083-5.24-3.583-1.581-1.82-3.075-3.537-6.388-3.537H54.17l-.542 6.226v.008l-.008.053-.008.052-.012.052-.013.05-.016.047-.019.052-.018.042-.025.052-.022.038a1.025 1.025 0 0 1-.307.34l-.041.028c-.014.01-.03.018-.044.027l-.044.024a1.026 1.026 0 0 1-.047.023l-.044.02-.054.02-.043.014-.064.017-.035.008c-.028.006-.056.01-.084.013l-.02.003a1.063 1.063 0 0 1-.108.006H13.778l-.908 9.378h3.625c.531-4.033 3.987-7.157 8.16-7.157s7.628 3.124 8.16 7.157h17.343c.531-4.033 3.986-7.157 8.16-7.157 4.173 0 7.628 3.124 8.16 7.157h3.858zm1.235-11.641c.051-.71.081-1.299.081-1.704 0-5.97-4.414-10.926-10.147-11.774l-.559 6.427c3.505.392 5.334 2.493 6.832 4.215 1.197 1.377 2.186 2.508 3.793 2.836zm-46.917 8.756a3.97 3.97 0 0 1 3.964 3.968 3.97 3.97 0 0 1-3.964 3.967 3.97 3.97 0 0 1-3.965-3.967 3.97 3.97 0 0 1 3.965-3.968zm0 5.771c.993 0 1.802-.809 1.802-1.803 0-.995-.809-1.804-1.802-1.804a1.805 1.805 0 0 0 0 3.607zm33.662-5.771a3.97 3.97 0 0 1 3.965 3.968 3.97 3.97 0 0 1-3.965 3.967 3.97 3.97 0 0 1-3.965-3.967 3.97 3.97 0 0 1 3.965-3.968zm0 5.771c.994 0 1.802-.809 1.802-1.803 0-.995-.808-1.804-1.802-1.804s-1.802.809-1.802 1.804c0 .994.808 1.803 1.802 1.803zm-48.08-30.299a1.082 1.082 0 0 1 0 2.164H4.95a1.082 1.082 0 0 1 0-2.164h5.286z"/>
</svg>
