<svg xmlns="http://www.w3.org/2000/svg" width="59" height="52" viewBox="0 0 59 52">
    <path fill="#4BD964" fill-rule="nonzero" d="M16.948 30.115C7.588 30.115 0 26.673 0 22.428V20.76c0-4.246 7.588-7.687 16.948-7.687 1.64 0 3.224.106 4.724.303v16.435c-1.5.197-3.084.303-4.724.303zm0 8.582C7.588 38.697 0 35.255 0 31.01v-1.667c0-.54.123-1.066.357-1.575 1.601 3.49 8.42 6.113 16.591 6.113 1.64 0 3.224-.108 4.724-.305v4.818c-1.5.197-3.084.303-4.724.303zm4.723 3.836V44.2c0 .933.216 1.833.633 2.686a35.999 35.999 0 0 1-5.356.393C7.588 47.279 0 43.837 0 39.592v-1.667c0-.54.123-1.066.356-1.575 1.602 3.49 8.422 6.113 16.592 6.113 1.64 0 3.224-.108 4.723-.305v.375zM41.385.055c9.36 0 16.948 3.441 16.948 7.687v1.667c0 4.245-7.588 7.687-16.948 7.687s-16.948-3.442-16.948-7.687V7.742c0-4.246 7.588-7.687 16.948-7.687zm0 20.807c8.17 0 14.99-2.622 16.592-6.113.233.509.356 1.035.356 1.575v1.667c0 4.245-7.588 7.687-16.948 7.687s-16.948-3.442-16.948-7.687v-1.667c0-.54.123-1.066.356-1.575 1.602 3.49 8.422 6.113 16.592 6.113zm0 8.582c8.17 0 14.99-2.622 16.592-6.113.233.509.356 1.035.356 1.575v1.667c0 4.245-7.588 7.687-16.948 7.687s-16.948-3.442-16.948-7.687v-1.667c0-.54.123-1.066.356-1.575 1.602 3.49 8.422 6.113 16.592 6.113zm0 9.045c8.17 0 14.99-2.622 16.592-6.112.233.508.356 1.034.356 1.574v1.667c0 4.246-7.588 7.687-16.948 7.687s-16.948-3.441-16.948-7.687v-1.667c0-.54.123-1.066.356-1.574 1.602 3.49 8.422 6.112 16.592 6.112zm0 8.582c8.17 0 14.99-2.622 16.592-6.112.233.508.356 1.034.356 1.574V44.2c0 4.245-7.588 7.687-16.948 7.687S24.437 48.445 24.437 44.2v-1.667c0-.54.123-1.066.356-1.574 1.602 3.49 8.422 6.112 16.592 6.112z"/>
</svg>
