<svg xmlns="http://www.w3.org/2000/svg" width="58" height="60" viewBox="0 0 58 60">
    <path fill="#4BD964" fill-rule="nonzero" d="M57.49 23.36a.883.883 0 0 1 .306 1.215l-9.312 15.42v6.246c0 .49-.4.886-.892.886h-3.415l-5.95 9.853a.9.9 0 0 1-.549.404l-10.433 2.59a.906.906 0 0 1-.675-.1L.491 44.312a.883.883 0 0 1-.305-1.216L8.68 29.031V.886c0-.49.4-.886.891-.886h29.982c.492 0 .89.396.89.886s-.398.886-.89.886h-29.09V26.08l6.12-10.135h-2.26a.889.889 0 0 1-.89-.885V5.61c0-.489.399-.885.89-.885h9.036l.31-.515a.903.903 0 0 1 1.223-.304L29.44 6.62a.9.9 0 0 1 .093-.005H42.84c.492 0 .89.397.89.886 0 .49-.398.886-.89.886H32.4l3.381 2.018a.904.904 0 0 1 .128-.01h6.931c.492 0 .891.396.891.886s-.4.886-.89.886h-4.108l7.968 4.755V1.77h-3.03a.889.889 0 0 1-.89-.885c0-.49.398-.886.89-.886h3.921c.493 0 .891.396.891.886v17.008c0 .03 0 .059-.004.088l9.012 5.378zm-39.84-9.186h.002l4.637-7.678h-7.074v7.678h2.436zM28.9 57.737l5.614-1.394.646-.16-3.912-2.334-2.348 3.888zm17.801-12.382v-2.408l-1.454 2.408h1.454zm-9.544 9.954L55.81 24.423 24.74 5.88 2.173 43.248 26.723 57.9l3.456-5.721a.894.894 0 0 1 1.222-.304l5.756 3.435zM30.82 16.122a.883.883 0 0 1-.305-1.216.894.894 0 0 1 1.222-.303l6.52 3.89a.883.883 0 0 1 .305 1.216.892.892 0 0 1-1.222.304l-6.52-3.891zm9.78 5.836a.883.883 0 0 1-.306-1.216.894.894 0 0 1 1.223-.303l8.965 5.35a.892.892 0 0 1 .351 1.128.902.902 0 0 1-1.269.39l-8.965-5.349zm-18.42-4.38a.883.883 0 0 1-.306-1.215.894.894 0 0 1 1.223-.304l7.335 4.377a.882.882 0 0 1 .305 1.216.892.892 0 0 1-1.223.303l-7.334-4.377zM47.545 30.65a.89.89 0 0 1 .352 1.127.902.902 0 0 1-1.27.391l-13.854-8.267a.883.883 0 0 1-.305-1.216.894.894 0 0 1 1.223-.304l13.854 8.269zm-2.446 4.05a.891.891 0 0 1 .352 1.128.902.902 0 0 1-1.27.391L19.734 21.63a.883.883 0 0 1-.306-1.215.894.894 0 0 1 1.223-.304L45.099 34.7zm-2.446 4.05a.892.892 0 0 1 .352 1.129.902.902 0 0 1-1.27.39L22.991 29.085a.883.883 0 0 1-.305-1.215.895.895 0 0 1 1.223-.304l18.744 11.186zM14.84 29.73a.883.883 0 0 1-.305-1.215.894.894 0 0 1 1.223-.304l14.67 8.754a.883.883 0 0 1 .304 1.216.892.892 0 0 1-1.222.303L14.84 29.73zm25.367 13.071a.892.892 0 0 1 .351 1.128.902.902 0 0 1-1.269.391l-6.52-3.89a.882.882 0 0 1-.305-1.216.894.894 0 0 1 1.223-.303l6.52 3.89zm-27.813-9.02a.883.883 0 0 1-.305-1.216.894.894 0 0 1 1.222-.303l5.705 3.404a.883.883 0 0 1 .306 1.216.892.892 0 0 1-1.223.303l-5.705-3.404zM37.76 46.852a.892.892 0 0 1 .352 1.128.902.902 0 0 1-1.269.391l-15.484-9.24a.883.883 0 0 1-.306-1.216.895.895 0 0 1 1.223-.303l15.484 9.24zm-2.446 4.05a.891.891 0 0 1 .352 1.129.902.902 0 0 1-1.269.39L9.948 37.832a.883.883 0 0 1-.305-1.215.894.894 0 0 1 1.222-.303l24.45 14.59zM18.2 46.2a.883.883 0 0 1 .305 1.216.892.892 0 0 1-1.223.303l-9.78-5.836a.883.883 0 0 1-.305-1.215.895.895 0 0 1 1.223-.304L18.2 46.2zm8.964 5.35a.89.89 0 0 1 .352 1.128.902.902 0 0 1-1.27.391l-5.704-3.404a.882.882 0 0 1-.305-1.216.894.894 0 0 1 1.223-.303l5.704 3.404z"/>
</svg>
