<svg width="18" height="18" viewBox="0 0 18 18" fill="none" xmlns="http://www.w3.org/2000/svg">
<path fill-rule="evenodd" clip-rule="evenodd" d="M0 2.57143C0 1.15361 1.15361 0 2.57143 0C3.98925 0 5.14286 1.15361 5.14286 2.57143C5.14286 3.98925 3.98925 5.14286 2.57143 5.14286C1.15361 5.14286 0 3.98925 0 2.57143ZM2.57143 6.42857C1.15361 6.42857 0 7.58218 0 9C0 10.4178 1.15361 11.5714 2.57143 11.5714C3.98925 11.5714 5.14286 10.4178 5.14286 9C5.14286 7.58218 3.98925 6.42857 2.57143 6.42857ZM2.57143 12.8571C1.15361 12.8571 0 14.0107 0 15.4286C0 16.8464 1.15361 18 2.57143 18C3.98925 18 5.14286 16.8464 5.14286 15.4286C5.14286 14.0107 3.98925 12.8571 2.57143 12.8571ZM9 12.8571C7.58218 12.8571 6.42857 14.0107 6.42857 15.4286C6.42857 16.8464 7.58218 18 9 18C10.4178 18 11.5714 16.8464 11.5714 15.4286C11.5714 14.0107 10.4178 12.8571 9 12.8571ZM12.8571 15.4286C12.8571 14.0107 14.0107 12.8571 15.4286 12.8571C16.8464 12.8571 18 14.0107 18 15.4286C18 16.8464 16.8464 18 15.4286 18C14.0107 18 12.8571 16.8464 12.8571 15.4286ZM6.42857 9C6.42857 7.58218 7.58218 6.42857 9 6.42857C10.4178 6.42857 11.5714 7.58218 11.5714 9C11.5714 10.4178 10.4178 11.5714 9 11.5714C7.58218 11.5714 6.42857 10.4178 6.42857 9ZM15.4286 6.42857C14.0107 6.42857 12.8571 7.58218 12.8571 9C12.8571 10.4178 14.0107 11.5714 15.4286 11.5714C16.8464 11.5714 18 10.4178 18 9C18 7.58218 16.8464 6.42857 15.4286 6.42857ZM9 0C7.58218 0 6.42857 1.15361 6.42857 2.57143C6.42857 3.98925 7.58218 5.14286 9 5.14286C10.4178 5.14286 11.5714 3.98925 11.5714 2.57143C11.5714 1.15361 10.4178 0 9 0ZM18 2.57143C18 3.98925 16.8464 5.14286 15.4286 5.14286C14.0107 5.14286 12.8571 3.98925 12.8571 2.57143C12.8571 1.15361 14.0107 0 15.4286 0C16.8464 0 18 1.15361 18 2.57143Z" fill="white"/>
</svg>
