<svg width="42" height="42" viewBox="0 0 42 42" fill="none" xmlns="http://www.w3.org/2000/svg">
<path fill-rule="evenodd" clip-rule="evenodd" d="M41.1797 2.78017H36.3024C35.8493 2.78017 35.482 3.14742 35.482 3.60048V4.30874H33.1948C32.7417 4.30874 32.3745 4.67599 32.3745 5.12905V5.36514C31.0411 5.24873 30.6026 4.99591 29.3781 4.28979C28.4364 3.74674 27.0131 2.92602 24.4498 1.77356C24.4379 1.76815 24.426 1.76314 24.4137 1.75839C23.5794 1.4301 21.3927 0.784183 19.0572 1.84263L15.7562 3.02454L12.9738 0.242202C12.6535 -0.0781299 12.1341 -0.0781299 11.8137 0.242202L2.67889 9.37696C2.38342 9.67251 2.32673 10.185 2.67889 10.5371L18.2884 26.1466C18.5382 26.3965 19.123 26.472 19.4485 26.1466L27.7882 17.807C28.0051 17.8257 28.2301 17.8358 28.4633 17.8358C30.6064 17.8358 32.5022 16.3656 33.5867 14.7632H41.1797C41.6327 14.7632 42 14.396 42 13.9429V3.60048C42 3.14742 41.6327 2.78017 41.1797 2.78017ZM12.3937 1.98233L14.2633 3.85199C13.7076 4.1957 13.065 4.37961 12.3937 4.37961C11.7223 4.37961 11.0798 4.19578 10.524 3.85199L12.3937 1.98233ZM4.41911 9.957L6.28876 11.8267C6.63255 11.2709 6.81639 10.6283 6.81639 9.957C6.81639 9.28566 6.63247 8.6431 6.28876 8.08734L4.41911 9.957ZM18.8685 24.4064L16.9992 22.5371C18.1405 21.8327 19.5964 21.8327 20.7377 22.5371L18.8685 24.4064ZM15.8173 21.3553C17.6301 20.0404 20.1069 20.0404 21.9197 21.3553L23.793 19.482C22.9316 18.2884 22.6122 16.7689 22.924 15.3245L20.1543 14.3845C19.9462 15.1789 19.5307 15.9078 18.9377 16.5009C18.026 17.4125 16.8285 17.8683 15.6311 17.8683C14.4336 17.8683 13.2362 17.4124 12.3247 16.5009C10.5015 14.6777 10.5015 11.7112 12.3246 9.88793C12.9966 9.21601 13.8533 8.76804 14.7786 8.59667C15.0659 8.0031 15.5272 7.51247 16.1152 7.18483C16.4633 6.99083 16.8367 6.86467 17.2195 6.80815L15.4453 5.03389C14.5642 5.67448 13.506 6.02032 12.3938 6.02032C11.2815 6.02032 10.2233 5.67448 9.34229 5.03389L7.47059 6.90552C8.11125 7.78653 8.45701 8.84474 8.45701 9.957C8.45701 11.0692 8.11117 12.1275 7.47059 13.0085L15.8173 21.3553ZM16.9441 13.2948L16.9541 13.2983L18.5944 13.855C18.4705 14.4141 18.1902 14.9281 17.7776 15.3408C16.594 16.5242 14.6683 16.5243 13.4849 15.3408C12.3013 14.1573 12.3013 12.2316 13.4849 11.0481C13.7703 10.7625 14.1072 10.5393 14.4743 10.3879C14.6258 11.6481 15.5331 12.7713 16.9323 13.2906L16.9441 13.2948ZM24.4509 16.594C24.4792 17.195 24.6583 17.7839 24.975 18.2999L25.8976 17.3773C25.324 17.1564 24.8438 16.8781 24.4509 16.594ZM32.3744 13.6158C31.5969 14.8904 30.089 16.195 28.4633 16.195C28.1591 16.195 27.8741 16.1733 27.6075 16.1348L27.6043 16.1343C25.8328 15.8769 24.8798 14.8701 24.5657 14.4714C24.5563 14.4576 24.5297 14.4221 24.5063 14.3909L24.5063 14.3908C24.4951 14.376 24.4847 14.3621 24.4772 14.352C24.4725 14.3456 24.4689 14.3407 24.4671 14.338C24.3716 14.1673 24.2149 14.0299 24.0151 13.9621L17.4929 11.7485C16.4521 11.3578 15.9019 10.4666 16.1541 9.57769L16.1546 9.57596L16.1552 9.57391C16.2724 9.16458 16.5416 8.82505 16.9137 8.61776C17.2833 8.41178 17.7106 8.36067 18.1182 8.47363L25.4676 10.8026C25.8996 10.9397 26.3606 10.7003 26.4974 10.2684C26.6342 9.83649 26.3951 9.37548 25.9632 9.23857L20.1181 7.3863L20.0671 7.33528L20.0655 7.33372L17.0394 4.30759L19.6404 3.37621C19.6492 3.37301 19.66 3.36899 19.6687 3.36546L19.6773 3.36201C19.6885 3.3575 19.6995 3.35275 19.7104 3.34774C21.4688 2.53957 23.1403 3.02331 23.7955 3.2781C26.2714 4.39216 27.5929 5.15415 28.5584 5.7109C29.9008 6.48503 30.5476 6.85802 32.3744 7.00888V13.6158ZM34.0151 13.1224H35.482V5.94936H34.0151V13.1224ZM40.3594 13.1224H37.1227V4.42079H40.3594V13.1224ZM29.4541 10.7907C29.4435 10.7382 29.4279 10.6865 29.4066 10.6365C29.3861 10.5872 29.3614 10.5397 29.3311 10.4954C29.3016 10.4503 29.2671 10.4084 29.2294 10.3707C29.1916 10.3329 29.1498 10.2985 29.1047 10.269C29.0604 10.2394 29.0128 10.214 28.9636 10.1935C28.9136 10.173 28.8619 10.1566 28.8102 10.1467C28.7044 10.1254 28.5953 10.1254 28.4895 10.1467C28.437 10.1566 28.3853 10.173 28.3361 10.1935C28.286 10.214 28.2384 10.2394 28.1941 10.269C28.149 10.2985 28.1072 10.3329 28.0695 10.3707C28.0317 10.4084 27.9973 10.4503 27.9677 10.4954C27.9382 10.5397 27.9128 10.5872 27.8923 10.6365C27.8718 10.6865 27.8554 10.7382 27.8455 10.7907C27.8348 10.8432 27.8291 10.8973 27.8291 10.9506C27.8291 11.004 27.8348 11.0581 27.8455 11.1106C27.8554 11.1631 27.8718 11.2148 27.8923 11.264C27.9128 11.314 27.9382 11.3616 27.9677 11.4059C27.9973 11.451 28.0317 11.4929 28.0695 11.5306C28.1072 11.5683 28.149 11.6028 28.1941 11.6323C28.2384 11.6619 28.286 11.6873 28.3361 11.7078C28.3853 11.7283 28.437 11.7439 28.4895 11.7545C28.542 11.7652 28.5961 11.771 28.6494 11.771C28.7027 11.771 28.7569 11.7652 28.8102 11.7545C28.8619 11.7439 28.9136 11.7283 28.9636 11.7078C29.0128 11.6873 29.0604 11.6619 29.1047 11.6323C29.1498 11.6028 29.1916 11.5683 29.2294 11.5306C29.2671 11.4929 29.3016 11.451 29.3311 11.4059C29.3614 11.3616 29.3861 11.314 29.4066 11.264C29.4279 11.2148 29.4435 11.1631 29.4541 11.1106C29.4648 11.0581 29.4697 11.004 29.4697 10.9506C29.4697 10.8973 29.4648 10.8432 29.4541 10.7907ZM37.7287 32.3882L37.7239 32.3765C36.9689 30.6098 35.1981 29.9569 33.1026 30.6726L27.3876 32.253C27.0572 31.2524 26.233 30.4009 25.0677 29.9684L25.0676 29.9684L25.0597 29.9656L25.0459 29.9607L18.7639 27.8286C18.241 27.1527 16.6032 25.4233 13.5366 25.4233C11.3936 25.4233 9.49774 26.8935 8.41313 28.496H0.820312C0.367254 28.496 0 28.8632 0 29.3163V39.6585C0 40.1116 0.367254 40.4789 0.820312 40.4789H5.69764C6.1507 40.4789 6.51796 40.1116 6.51796 39.6585V38.9503H8.80523C9.25829 38.9503 9.62555 38.583 9.62555 38.13V37.8939C10.9588 38.0102 11.3974 38.2631 12.6218 38.9692L12.622 38.9692C13.5637 39.5123 14.987 40.333 17.5502 41.4855C17.5621 41.4908 17.5741 41.4959 17.5862 41.5006C18.0781 41.6942 19.0398 41.9982 20.2254 41.9982C21.0506 41.9982 21.9845 41.8507 22.9432 41.4162L35.5752 36.8934C35.5977 36.8853 35.6199 36.8763 35.6415 36.8663C36.8488 36.3109 38.6478 34.7454 37.7338 32.4009L37.7287 32.3882ZM4.87733 38.8382H1.64062V30.1365H4.87733V38.8382ZM6.51796 37.3096H7.98492V30.1365H6.51796V37.3096ZM34.986 35.3616L22.3596 39.8824C22.3539 39.8844 22.3473 39.8869 22.3407 39.8895L22.3226 39.8967L22.3049 39.9041L22.2895 39.911C20.531 40.7191 18.8595 40.2353 18.2044 39.9806C15.7285 38.8665 14.4071 38.1045 13.4416 37.5478L13.4411 37.5475C12.099 36.7737 11.4522 36.4007 9.62555 36.2498V29.6429C10.4031 28.3684 11.911 27.0639 13.5367 27.0639C16.3246 27.0639 17.506 28.8772 17.5524 28.9503C17.6525 29.1133 17.8065 29.2361 17.9876 29.2975L24.507 31.5102C25.5482 31.901 26.0985 32.7927 25.8456 33.6819C25.7289 34.0926 25.4591 34.4332 25.0862 34.6409C24.7165 34.8469 24.2891 34.8979 23.8818 34.7851L16.5323 32.4561C16.1002 32.3192 15.6393 32.5584 15.5025 32.9903C15.3656 33.4222 15.6048 33.8832 16.0367 34.0201L23.3989 36.3532L23.4094 36.3564L23.4224 36.3602C23.7163 36.4438 24.0156 36.4852 24.313 36.4852C24.8575 36.4852 25.3961 36.3465 25.8848 36.0741C26.6406 35.653 27.187 34.9628 27.4236 34.1306C27.4425 34.0642 27.4592 33.9977 27.4737 33.9313L33.6329 32.225C34.5224 31.9212 35.6902 31.8117 36.2101 33.0091C36.7482 34.4149 35.3496 35.1882 34.986 35.3616ZM14.1077 31.994C14.1282 32.0441 14.1438 32.0958 14.1545 32.1483C14.1652 32.2008 14.1709 32.2549 14.1709 32.3082C14.1709 32.3615 14.1652 32.4157 14.1545 32.4682C14.1438 32.5207 14.1282 32.5724 14.1077 32.6216C14.0872 32.6716 14.0618 32.7192 14.0323 32.7635C14.0027 32.8086 13.9683 32.8504 13.9305 32.8882C13.8928 32.9259 13.851 32.9604 13.8059 32.9899C13.7616 33.0194 13.714 33.0449 13.6639 33.0654C13.6147 33.086 13.563 33.1024 13.5105 33.1122C13.458 33.1229 13.4039 33.1286 13.3506 33.1286C13.2973 33.1286 13.2431 33.1229 13.1906 33.1122C13.1381 33.1024 13.0864 33.086 13.0364 33.0654C12.9872 33.0449 12.9396 33.0195 12.8953 32.9899C12.8502 32.9604 12.8084 32.9259 12.7706 32.8882C12.7329 32.8504 12.6984 32.8086 12.6689 32.7635C12.6386 32.7192 12.6139 32.6716 12.5934 32.6216C12.5729 32.5724 12.5565 32.5207 12.5467 32.4682C12.536 32.4157 12.5303 32.3615 12.5303 32.3082C12.5303 32.2549 12.536 32.2008 12.5467 32.1483C12.5565 32.0958 12.5729 32.0441 12.5934 31.994C12.6139 31.9448 12.6386 31.8972 12.6689 31.8529C12.6984 31.8078 12.7329 31.766 12.7706 31.7283C12.8084 31.6905 12.8502 31.6561 12.8953 31.6265C12.9396 31.597 12.9872 31.5716 13.0364 31.5511C13.0864 31.5306 13.1381 31.5142 13.1906 31.5043C13.2956 31.483 13.4047 31.483 13.5105 31.5043C13.563 31.5142 13.6147 31.5306 13.6639 31.5511C13.714 31.5716 13.7616 31.597 13.8059 31.6265C13.851 31.6561 13.8928 31.6905 13.9305 31.7283C13.9683 31.766 14.0027 31.8078 14.0323 31.8529C14.0618 31.8972 14.0872 31.9448 14.1077 31.994Z" fill="white"/>
</svg>
