<svg width="47" height="47" viewBox="0 0 47 47" fill="none" xmlns="http://www.w3.org/2000/svg">
<path fill-rule="evenodd" clip-rule="evenodd" d="M45.6754 17.7261C45.76 18.0055 45.7084 18.3095 45.5262 18.548C45.4014 19.0371 45.495 19.4713 45.7647 19.8274C46.5726 20.8906 47 22.1611 47 23.5C47 24.8386 46.5722 26.1098 45.7629 27.1755C45.4936 27.5305 45.404 27.983 45.5169 28.4162C45.8461 29.6744 45.7747 31.022 45.253 32.2824C44.7438 33.5112 43.6964 34.701 42.5195 35.3884C42.1351 35.6132 41.8791 35.9969 41.8178 36.4405C41.6281 37.8379 40.9841 39.2052 40.0955 40.0948C39.2066 40.9834 37.839 41.6281 36.4369 41.8189C35.9962 41.8795 35.6129 42.1358 35.387 42.522C34.7007 43.6978 33.5105 44.7445 32.2817 45.253C30.5945 45.9542 29.2672 45.69 28.5257 45.5424C28.3204 45.5015 28.16 45.4696 28.0493 45.4696C27.7348 45.4696 27.4236 45.5743 27.173 45.7643C26.1094 46.5726 24.8389 47 23.5 47C22.1607 47 20.8895 46.5719 19.8238 45.7618C19.4749 45.4972 19.0109 45.4054 18.5842 45.5169C17.0448 45.9221 15.4821 45.6464 14.5333 45.253C13.4052 44.7858 12.3678 43.8151 11.6116 42.5195C11.3868 42.1351 11.0031 41.8791 10.5592 41.8178C9.16176 41.6281 7.79485 40.9844 6.9052 40.0955C6.01592 39.2055 5.37191 37.8382 5.18114 36.4369C5.12054 35.9962 4.8638 35.6125 4.47689 35.3855C3.42087 34.7699 2.49178 33.6382 1.93024 32.2817C1.41927 31.0474 1.1367 29.7099 1.48417 28.4093C1.59605 27.9819 1.50568 27.5294 1.23531 27.1726C0.427429 26.1094 0 24.8389 0 23.5C0 22.1614 0.427788 20.8902 1.23711 19.8245C1.64851 19.282 1.5297 18.774 1.43577 18.3723C1.41795 18.2961 1.40102 18.2238 1.38879 18.1557C1.16431 16.9494 1.29448 15.6277 1.74665 14.534C2.21424 13.4056 3.18492 12.3678 4.48048 11.6116C4.86488 11.3868 5.1209 11.0031 5.18222 10.5595C5.37191 9.16176 6.01592 7.79485 6.90449 6.9052C7.79449 6.01628 9.16176 5.37191 10.5631 5.18114C11.0038 5.12054 11.3871 4.86416 11.613 4.47761C12.3686 3.1842 13.4063 2.21388 14.5347 1.74701C15.6259 1.2934 17.1893 1.11626 18.5874 1.48417C19.0113 1.59497 19.4756 1.50174 19.827 1.23567C20.8906 0.427429 22.1611 0 23.5 0C24.8393 0 26.1105 0.428146 27.1758 1.23854C27.5251 1.50282 27.9898 1.59497 28.4165 1.48309C29.6784 1.15212 31.0302 1.22742 32.2835 1.74737C33.5112 2.2562 34.701 3.30361 35.3884 4.48048C35.6132 4.86488 35.9969 5.1209 36.4405 5.18222C37.8379 5.37191 39.2052 6.01592 40.0948 6.90449C40.9837 7.79449 41.6281 9.16212 41.8189 10.5631C41.8795 11.0038 42.1358 11.3871 42.522 11.613C43.8158 12.3686 44.7861 13.4063 45.253 14.5347C45.651 15.4954 45.7995 16.6367 45.6754 17.7261ZM43.634 28.0898C43.6236 27.3666 43.8517 26.6573 44.3002 26.0657C44.8654 25.3212 45.1641 24.4345 45.1641 23.5C45.1641 22.5655 44.8661 21.6791 44.302 20.9369C43.852 20.343 43.6232 19.6323 43.634 18.9091H7.65177C7.64926 18.9091 7.64711 18.9094 7.6446 18.9094L7.64183 18.9093L7.6385 18.9091H3.36636C3.37676 19.632 3.14835 20.3427 2.6994 20.9343C2.13464 21.6788 1.83594 22.5655 1.83594 23.5C1.83594 24.4345 2.13392 25.3209 2.69797 26.0628C3.14799 26.657 3.37676 27.3669 3.366 28.0898H43.634ZM13.4493 29.9258C15.6374 33.3359 19.4394 35.4336 23.5 35.4336C27.5606 35.4336 31.3626 33.3348 33.5507 29.9247H37.9949C35.44 35.5508 29.6583 39.3809 23.5 39.3809C17.3417 39.3809 11.56 35.5519 9.00506 29.9258H13.4493ZM31.2823 29.9247H15.7177C17.6218 32.2221 20.4768 33.5977 23.5 33.5977C26.5232 33.5977 29.3782 32.2221 31.2823 29.9247ZM33.5507 17.0742C31.3626 13.6641 27.5606 11.5664 23.5 11.5664C19.4394 11.5664 15.6374 13.6641 13.4493 17.0742H9.00506C11.56 11.4481 17.3417 7.61914 23.5 7.61914C29.6583 7.61914 35.44 11.4481 37.9949 17.0742H33.5507ZM15.7177 17.0742H31.2823C29.3782 14.7771 26.5232 13.4023 23.5 13.4023C20.4768 13.4023 17.6218 14.7771 15.7177 17.0742ZM3.4431 15.2361C3.75327 14.4878 4.46864 13.7444 5.40705 13.1969C6.28127 12.6852 6.86217 11.8153 7.0013 10.8084C7.13685 9.80756 7.59763 8.80927 8.20255 8.20327C8.80891 7.59763 9.80828 7.13685 10.8116 7.00023C11.8156 6.86253 12.6852 6.28091 13.198 5.40418C13.7448 4.46828 14.4878 3.75327 15.2379 3.44274C15.9429 3.14978 17.0968 2.99021 18.1224 3.26022C19.088 3.51195 20.1397 3.30218 20.9369 2.69797C21.6791 2.13392 22.5655 1.83594 23.5 1.83594C24.4345 1.83594 25.3212 2.13464 26.066 2.70119C26.8621 3.30361 27.9145 3.51231 28.882 3.25915C29.7752 3.02464 30.7147 3.08416 31.5803 3.4431C32.4298 3.79523 33.323 4.58411 33.8035 5.40705C34.3148 6.28127 35.1847 6.86217 36.1916 7.0013C37.1924 7.13685 38.1907 7.59763 38.7967 8.20291C39.4024 8.80891 39.8632 9.80828 39.9998 10.812C40.1378 11.8156 40.7191 12.6852 41.5958 13.1983C42.5321 13.7448 43.2467 14.4881 43.5569 15.2372C43.7821 15.7805 43.8929 16.4309 43.88 17.0742H39.9901C37.3305 10.3946 30.6433 5.7832 23.5 5.7832C16.3567 5.7832 9.66951 10.3946 7.00991 17.0742H3.11966C3.10639 16.4331 3.21755 15.7819 3.4431 15.2361ZM41.5929 33.8031C42.4159 33.3226 43.2048 32.4294 43.5569 31.5799C43.7764 31.0496 43.885 30.488 43.8803 29.9258H39.9901C37.3305 36.6054 30.6433 41.2168 23.5 41.2168C16.3567 41.2168 9.66951 36.6054 7.00991 29.9258H3.18277C3.22688 30.4221 3.37389 30.9685 3.62669 31.5792C4.03799 32.5721 4.68559 33.3818 5.40382 33.8006C6.28127 34.3155 6.86253 35.1851 7.00023 36.188C7.13685 37.1917 7.59798 38.1911 8.20327 38.7971C8.80927 39.4024 9.80756 39.8632 10.8084 39.9987C11.8163 40.1378 12.6859 40.7191 13.1969 41.5937C13.7444 42.5314 14.4874 43.2467 15.2361 43.5569C15.9286 43.8438 17.0882 44.0119 18.1184 43.7412C19.0837 43.4888 20.1361 43.695 20.934 44.2992C21.6788 44.8654 22.5655 45.1641 23.5 45.1641C24.4345 45.1641 25.3209 44.8661 26.0628 44.302C26.6319 43.8707 27.3368 43.6336 28.0493 43.6336C28.3096 43.6336 28.5797 43.6853 28.8728 43.7413L28.8728 43.7413C29.5806 43.8767 30.4218 44.0376 31.5785 43.5573C32.429 43.2048 33.3223 42.417 33.8017 41.5958C34.3148 40.7191 35.1844 40.1375 36.188 39.9998C37.2075 39.861 38.1825 39.4113 38.7967 38.7971C39.4024 38.1907 39.8632 37.1924 39.9987 36.1916C40.1378 35.1844 40.7187 34.3148 41.5929 33.8031ZM10.6484 22.582C10.1418 22.582 9.73047 22.9933 9.73047 23.5C9.73047 24.0067 10.1418 24.418 10.6484 24.418C11.1551 24.418 11.5664 24.0067 11.5664 23.5C11.5664 22.9933 11.1551 22.582 10.6484 22.582ZM14.3203 22.582H36.3516C36.8586 22.582 37.2695 22.993 37.2695 23.5C37.2695 24.007 36.8586 24.418 36.3516 24.418H14.3203C13.8133 24.418 13.4023 24.007 13.4023 23.5C13.4023 22.993 13.8133 22.582 14.3203 22.582Z" fill="white"/>
</svg>
