<svg xmlns="http://www.w3.org/2000/svg" width="74" height="74" viewBox="0 0 74 74">
    <g fill="none" fill-rule="evenodd">
        <circle cx="37" cy="37" r="37" fill="#30BFFB"/>
        <g fill="#FFF" fill-rule="nonzero">
            <path d="M42.678 18.11v4.055a5.683 5.683 0 0 1-5.677 5.677 5.683 5.683 0 0 1-5.677-5.677V18.11h-1.622v4.055c0 4.025 3.275 7.3 7.299 7.3 4.025 0 7.3-3.275 7.3-7.3V18.11h-1.623z"/>
            <path d="M59.799 51.604l-4.365-17.476a4.063 4.063 0 0 0-3.87-3.039l-9.698-.753v-3.305h-1.622v4.056c0 .423.326.775.749.808l10.51.814h.005c1.11 0 2.078.75 2.355 1.818l4.363 17.47a4.061 4.061 0 0 1-3.934 5.041v1.623a5.685 5.685 0 0 0 5.678-5.677c0-.465-.058-.93-.171-1.38zM32.135 27.031v3.305l-9.633.75h-.009a4.057 4.057 0 0 0-3.927 3.048l-4.363 17.469a5.639 5.639 0 0 0 .636 4.298 5.634 5.634 0 0 0 3.488 2.589c.452.114.917.171 1.383.171V57.04c-.333 0-.664-.041-.987-.123a4.026 4.026 0 0 1-2.492-1.849 4.031 4.031 0 0 1-.454-3.071l4.361-17.463c.278-1.076 1.25-1.827 2.425-1.827l10.446-.811a.81.81 0 0 0 .748-.809v-4.055h-1.622zM40.245 10h-6.488a4.06 4.06 0 0 0-4.055 4.055v4.866c0 .448.363.811.81.811H43.49a.811.811 0 0 0 .811-.81v-4.867A4.06 4.06 0 0 0 40.245 10zm-8.921 8.11v-4.055a2.436 2.436 0 0 1 2.433-2.433h6.488a2.436 2.436 0 0 1 2.433 2.433v4.055H31.324z"/>
            <path d="M40.245 14.866h-6.488a4.06 4.06 0 0 0-4.055 4.055c0 .448.363.811.81.811H43.49a.811.811 0 0 0 .81-.81 4.06 4.06 0 0 0-4.054-4.056zm-8.782 3.244a2.436 2.436 0 0 1 2.294-1.622h6.488c1.058 0 1.96.678 2.294 1.622H31.463z"/>
            <path d="M37.001 22.165v-3.244h-1.622v4.055c0 .448.363.811.81.811h1.623v-1.622H37zM29.702 53.795h-6.488v-1.622a2.436 2.436 0 0 0-2.433-2.433 2.436 2.436 0 0 0-2.434 2.433v5.677a.81.81 0 0 0 .811.811h7.3a4.06 4.06 0 0 0 4.055-4.055.81.81 0 0 0-.811-.811zm-3.244 3.244H19.97v-4.866a.812.812 0 0 1 1.622 0v2.433a.81.81 0 0 0 .81.811h6.35a2.437 2.437 0 0 1-2.294 1.622zM16.725 44.874h5.677v1.622h-5.677zM51.599 44.874h5.677v1.622h-5.677z"/>
            <path d="M51.6 34.33H22.402a.811.811 0 0 0-.811.812v19.464a.81.81 0 0 0 .81.811H51.6a.81.81 0 0 0 .811-.811V35.142a.81.81 0 0 0-.81-.811zM23.213 53.796V35.953h27.574v17.842H23.214z"/>
            <path d="M47.543 50.551h1.622v1.622h-1.622zM44.299 50.551h1.622v1.622h-1.622zM40.482 30.513L37 33.995l-3.482-3.482-1.147 1.147 4.056 4.055a.809.809 0 0 0 1.146 0l4.055-4.055-1.147-1.147z"/>
            <path d="M53.221 49.74a2.436 2.436 0 0 0-2.433 2.433v1.622H44.3a.81.81 0 0 0-.81.811 4.06 4.06 0 0 0 4.054 4.055h7.3a.81.81 0 0 0 .81-.81v-5.678a2.436 2.436 0 0 0-2.433-2.433zm-5.677 7.3a2.438 2.438 0 0 1-2.294-1.623h6.35a.81.81 0 0 0 .81-.811v-2.433a.811.811 0 0 1 1.622 0v4.866h-6.488zM22.402 40.008h29.197v1.622H22.402z"/>
            <path d="M40.245 34.33h-6.488a.811.811 0 0 0-.811.812v10.543a.81.81 0 0 0 .81.81h6.489a.81.81 0 0 0 .811-.81V35.142a.81.81 0 0 0-.811-.811zm-.811 10.544h-4.866v-8.921h4.866v8.92z"/>
        </g>
    </g>
</svg>
