<svg width="46" height="43" viewBox="0 0 46 43" fill="none" xmlns="http://www.w3.org/2000/svg">
<path fill-rule="evenodd" clip-rule="evenodd" d="M16.9322 0.536987H3.03074C1.35898 0.54197 0.00498293 1.89596 0 3.56773V39.247C0.00998091 40.9237 1.3721 42.2778 3.04889 42.2777H16.9141C18.5909 42.2778 19.953 40.9237 19.963 39.247V3.56773C19.958 1.89596 18.604 0.54197 16.9322 0.536987ZM12.25 1.56236C12.3902 1.55867 12.5187 1.6403 12.575 1.76881C12.6312 1.89732 12.604 2.0471 12.5061 2.1476C12.4083 2.24811 12.2593 2.27931 12.1293 2.22652C11.9993 2.17372 11.9143 2.04745 11.9143 1.90717C11.9118 1.81657 11.9461 1.72882 12.0093 1.66388C12.0726 1.59894 12.1594 1.56232 12.25 1.56236ZM8.58407 1.68032C8.47883 1.68032 8.39352 1.76564 8.39352 1.87088V1.93439C8.39352 2.03964 8.47883 2.12495 8.58407 2.12495H11.3698C11.4751 2.12495 11.5604 2.03964 11.5604 1.93439V1.87088C11.5604 1.76564 11.4751 1.68032 11.3698 1.68032H8.58407ZM19.0556 39.5555C19.0556 40.5578 18.243 41.3703 17.2407 41.3703H2.72222C1.71993 41.3703 0.907407 40.5578 0.907407 39.5555V3.25921C0.907407 2.25691 1.71993 1.44439 2.72222 1.44439H4.08333C4.22852 1.44439 4.50074 1.57143 4.52796 1.82551V2.41532C4.54259 2.67219 4.66557 2.91077 4.86631 3.0717C5.06704 3.23264 5.32666 3.30079 5.58056 3.25921H14.3915C14.6426 3.29517 14.8972 3.22442 15.0937 3.06409C15.2903 2.90376 15.4107 2.6685 15.4259 2.41532V1.80736C15.4259 1.55328 15.7254 1.46254 15.8706 1.44439H17.2407C18.243 1.44439 19.0556 2.25691 19.0556 3.25921V39.5555ZM29.037 42.2777H19.6454C19.9661 42.02 20.2447 41.7139 20.4711 41.3703H29.2185C30.1185 41.3654 30.8469 40.637 30.8519 39.737V7.61477C30.8469 6.71476 30.1185 5.98639 29.2185 5.98143H27.6215C27.4854 5.99958 27.2222 6.08125 27.2222 6.3081V7.0431C27.1791 7.50138 26.7732 7.8383 26.3148 7.79625H20.8704V5.07402H29.037C30.5405 5.07402 31.7593 6.2928 31.7593 7.79625V39.5555C31.7593 41.0589 30.5405 42.2777 29.037 42.2777ZM24.2731 6.66199C24.3984 6.66199 24.5 6.56042 24.5 6.43514C24.5 6.30985 24.3984 6.20828 24.2731 6.20828H22.0046C21.8793 6.20828 21.7778 6.30985 21.7778 6.43514C21.7778 6.56042 21.8793 6.66199 22.0046 6.66199H24.2731ZM42.7661 7.79625H32.6667V11.4259H44.463V38.6481H32.6667V39.5555C32.6608 40.6009 32.2044 41.593 31.4144 42.2777H42.7661C44.2233 42.2145 45.3717 41.0141 45.3704 39.5555V10.4096C45.3654 8.97186 44.2038 7.80619 42.7661 7.79625ZM38.1111 10.0648H35.3889V9.61106H38.1111V10.0648ZM35.3889 40.4629C35.3889 41.2146 35.9983 41.824 36.75 41.824C37.5017 41.824 38.1111 41.2146 38.1111 40.4629C38.1111 39.7112 37.5017 39.1018 36.75 39.1018C35.9983 39.1018 35.3889 39.7112 35.3889 40.4629Z" fill="white"/>
</svg>
