<svg xmlns="http://www.w3.org/2000/svg" width="74" height="74" viewBox="0 0 74 74">
    <g fill="none" fill-rule="evenodd">
        <circle cx="37" cy="37" r="37" fill="#F92C56"/>
        <path fill="#FFF" fill-rule="nonzero" d="M25.065 14.007l-1.055-1.035C28.04 9.01 34.6 9.01 38.63 12.971l-1.055 1.038c-3.45-3.39-9.062-3.39-12.51-.002zm11.742.758c-3.027-2.971-7.949-2.971-10.973.002l1.057 1.035c2.44-2.4 6.418-2.4 8.861 0l1.055-1.037zm-8.03 2.89a3.647 3.647 0 0 1 5.09 0l1.056-1.039c-1.985-1.952-5.216-1.952-7.204.001l1.058 1.038zm12.62 13.632l-.335.33a1.853 1.853 0 0 0 .003 2.657l.146.144a1.933 1.933 0 0 0 2.703.001l2.527-2.48.331-.328a1.857 1.857 0 0 0 0-2.659l-.15-.145a1.936 1.936 0 0 0-2.704 0l-2.521 2.48zm5.562 1.165l-2.525 2.482a1.861 1.861 0 0 0 0 2.656l.145.145a1.939 1.939 0 0 0 2.704 0l.335-.33 2.188-2.148.33-.329c.75-.734.748-1.92.004-2.659l-.147-.144a1.936 1.936 0 0 0-2.704-.001l-.33.328zm8.336 12.062L44.015 55.6a2.455 2.455 0 0 1-3.42.001l-1.941-1.91-2.055 2.017s-3.06 2.985-7.204 2.142c-.033-.007-.066-.011-.097-.018a8.115 8.115 0 0 1-1.005-.295c-.15-.055-.3-.104-.452-.172a8.72 8.72 0 0 1-.923-.456c-.091-.054-.187-.12-.28-.177a9.642 9.642 0 0 1-.788-.535c-.102-.077-.205-.154-.312-.238a12.784 12.784 0 0 1-1.06-.93c-3.995-3.925-3.82-7.422-3.074-9.187.003-.006.612-2.21 1.35-4.835.209-.746.43-1.523.647-2.3l-4.695-4.616a2.354 2.354 0 0 1 0-3.36l11.28-11.084a2.454 2.454 0 0 1 3.42 0l6.545 6.428.594-.586a1.94 1.94 0 0 1 2.706 0l.147.147c.747.733.747 1.92 0 2.656l-.334.33-2.185 2.15-.338.328a1.934 1.934 0 0 1-2.701 0l-.146-.142a1.86 1.86 0 0 1 0-2.659l.333-.33.737-.725L33.22 21.8 20.896 33.906l3.027 2.972c.515-1.811.976-3.39 1.219-4.142.766-2.386 2.701-2.298 3.621-.847.717 1.118.161 3.666-.21 6.55-.074.57-.268 1.505-.495 2.498l12.277 12.062 12.318-12.107-.915-.899-1.075 1.056a1.937 1.937 0 0 1-2.703 0l-.15-.146a1.857 1.857 0 0 1 0-2.656l.336-.33 2.188-2.148.33-.33a1.94 1.94 0 0 1 2.706 0l.145.143c.75.734.747 1.923 0 2.66l-.33.326.002.002-.262.256 2.37 2.328c.94.923.94 2.434 0 3.36zM23.775 28.58c.112.113.3.11.412-.001l3.61-3.548a.281.281 0 0 0 0-.405.295.295 0 0 0-.412 0l-3.61 3.547a.285.285 0 0 0 0 .407zM48.8 47.537a1.223 1.223 0 0 0-1.71 0 1.177 1.177 0 0 0 0 1.68 1.224 1.224 0 0 0 1.71.002c.47-.465.47-1.215 0-1.682z"/>
    </g>
</svg>
