<svg xmlns="http://www.w3.org/2000/svg" width="74" height="74" viewBox="0 0 74 74">
    <g fill="none" fill-rule="evenodd">
        <circle cx="37" cy="37" r="37" fill="#4BD964"/>
        <path fill="#FFF" fill-rule="nonzero" d="M52.378 30.83c5.237 0 9.498 4.324 9.498 9.638 0 .448-.048 1.18-.121 2.048v.008c-.256 3.012-.828 7.67-.86 7.922 0 .01-.003.02-.004.03l-.006.034-.01.038-.008.03a.73.73 0 0 1-.017.047l-.007.02a.724.724 0 0 1-.03.063l-.002.003a.745.745 0 0 1-.033.056l-.01.014a.808.808 0 0 1-.03.042l-.016.018a.783.783 0 0 1-.03.032l-.02.02a.679.679 0 0 1-.029.027l-.024.02-.029.021a.652.652 0 0 1-.117.068.678.678 0 0 1-.065.026l-.029.01a.697.697 0 0 1-.043.011l-.023.006a.705.705 0 0 1-.057.009l-.012.001a.724.724 0 0 1-.072.004h-3.255C56.557 53.86 54.223 56 51.403 56c-2.82 0-5.154-2.14-5.513-4.904H34.171C33.812 53.86 31.478 56 28.658 56s-5.154-2.14-5.513-4.904h-3.252-.002a.723.723 0 0 1-.07-.003h-.002a.73.73 0 0 1-.064-.01c-.003 0-.006 0-.01-.002a.773.773 0 0 1-.065-.016l-.005-.002a.767.767 0 0 1-.056-.02l-.012-.005-.04-.019a.725.725 0 0 1-.169-.118l-.024-.022-.004-.005a.743.743 0 0 1-.174-.29c0-.003-.002-.005-.003-.008l-.007-.03c-.004-.013-.008-.027-.01-.041l-.003-.017a.733.733 0 0 1-.009-.057l-.001-.018c-.001-.019-.003-.037-.003-.056v-.002l.002-.041c0-.01 0-.02.002-.03v-.004-.002l.755-7.907v-.002l.489-5.114h-2.466a.736.736 0 0 1-.73-.741c0-.41.327-.742.73-.742h2.607l.897-9.39H12.73A.736.736 0 0 1 12 25.64c0-.41.327-.742.73-.742h8.857l.5-5.228v-.003c0-.007.002-.012.003-.018a.817.817 0 0 1 .008-.057l.002-.007a.734.734 0 0 1 .713-.585h8.768c.402 0 .73.332.73.741a.738.738 0 0 1-.73.742h-8.104l-.422 4.415h7.552c.404 0 .73.332.73.742s-.326.741-.73.741h-7.693l-.897 9.391h4.692c.404 0 .73.332.73.742s-.326.741-.73.741h-4.833l-.425 4.449h25.387l.367-4.275v-.004l1.454-16.942H34.504a.737.737 0 0 1-.731-.742c0-.409.327-.741.73-.741H49.457l.025.001c.013 0 .025 0 .038.002h.006l.036.006.038.005.03.008.041.01.019.007a.705.705 0 0 1 .05.019l.007.003c.262.115.44.38.44.68v.005c0 .02 0 .04-.002.06l-.946 11.024h3.14zm-3.268 1.483l-.381 4.448h2.989l.381-4.448H49.11zM28.66 54.517c2.261 0 4.101-1.867 4.101-4.162 0-2.296-1.84-4.163-4.101-4.163-2.262 0-4.102 1.867-4.102 4.163 0 2.295 1.84 4.162 4.102 4.162zm22.744 0c2.262 0 4.102-1.867 4.102-4.162 0-2.296-1.84-4.163-4.102-4.163-2.261 0-4.101 1.867-4.101 4.163 0 2.295 1.84 4.162 4.101 4.162zm8.122-4.904c.153-1.282.497-4.21.71-6.49-1.674-.28-2.659-1.428-3.54-2.456-1.07-1.246-2.079-2.424-4.317-2.424h-3.776l-.367 4.266v.006l-.005.036-.006.036-.008.035c-.003.012-.005.024-.009.035l-.01.032-.013.036-.013.029c-.005.011-.01.023-.017.035l-.014.026a.704.704 0 0 1-.208.233l-.027.019a.828.828 0 0 1-.03.018l-.03.017-.032.016c-.01.004-.02.01-.03.013l-.036.014-.028.01-.044.011-.024.006a.722.722 0 0 1-.057.009l-.013.002a.708.708 0 0 1-.073.004H21.308l-.613 6.426h2.45c.358-2.764 2.693-4.904 5.513-4.904s5.154 2.14 5.513 4.904H45.89c.36-2.764 2.694-4.904 5.514-4.904 2.82 0 5.154 2.14 5.513 4.904h2.608zm.834-7.977c.035-.486.055-.89.055-1.167 0-4.09-2.982-7.486-6.856-8.068l-.378 4.404c2.369.269 3.604 1.709 4.616 2.889.81.943 1.478 1.718 2.563 1.942zm-31.7 6c1.477 0 2.678 1.22 2.678 2.718 0 1.5-1.201 2.72-2.678 2.72-1.478 0-2.68-1.22-2.68-2.72 0-1.499 1.202-2.718 2.68-2.718zm0 3.954c.67 0 1.217-.554 1.217-1.236 0-.681-.546-1.235-1.217-1.235-.672 0-1.218.554-1.218 1.235 0 .682.546 1.236 1.218 1.236zm22.744-3.954c1.478 0 2.68 1.22 2.68 2.718 0 1.5-1.202 2.72-2.68 2.72-1.477 0-2.678-1.22-2.678-2.72 0-1.499 1.201-2.718 2.678-2.718zm0 3.954c.672 0 1.218-.554 1.218-1.236 0-.681-.546-1.235-1.218-1.235-.671 0-1.217.554-1.217 1.235 0 .682.546 1.236 1.217 1.236zM18.916 30.83c.404 0 .731.332.731.741 0 .41-.327.742-.73.742h-3.572a.736.736 0 0 1-.731-.742c0-.41.327-.741.73-.741h3.572z"/>
    </g>
</svg>
