<svg xmlns="http://www.w3.org/2000/svg" width="74" height="74" viewBox="0 0 74 74">
    <g fill="none" fill-rule="evenodd">
        <circle cx="37" cy="37" r="37" fill="#1A7AFE"/>
        <path fill="#FFF" fill-rule="nonzero" d="M49.48 44.238a.68.68 0 0 1-.676-.684.68.68 0 0 1 .676-.684h2.162a.68.68 0 0 1 .676.684.68.68 0 0 1-.676.684H49.48zm9.277-10.919a.68.68 0 0 1 .675.684v19.101a.68.68 0 0 1-.675.684h-10.65v2.163c0 2.233-1.794 4.049-3.998 4.049H41.44a.68.68 0 0 1-.675-.684.68.68 0 0 1 .675-.684h2.668c1.46 0 2.647-1.203 2.647-2.68V40.25c0-1.478-1.188-2.68-2.647-2.68H18.594a4.551 4.551 0 0 1-3.243-1.36v19.139c0 1.81 1.455 3.283 3.243 3.283H39.19a.68.68 0 0 1 .676.684.68.68 0 0 1-.676.684H18.594C16.061 60 14 57.914 14 55.349v-22.43-.013a4.65 4.65 0 0 1 1.346-3.277 4.531 4.531 0 0 1 2.922-1.349V16.993c0-1.65 1.327-2.993 2.957-2.993h14.873c1.63 0 2.957 1.342 2.957 2.993v6.075h12.048c1.866 0 3.385 1.538 3.385 3.428v6.823h4.269zm-28.547 0h22.926v-1.976H30.21v1.976zm22.926-6.823c0-1.136-.912-2.06-2.033-2.06H32.034c-1.005 0-1.824.83-1.824 1.848v.364H44.37a.68.68 0 0 1 .675.685.68.68 0 0 1-.675.684H30.21v1.958h22.926v-1.958h-6.515a.68.68 0 0 1-.676-.684.68.68 0 0 1 .676-.685h6.515v-.152zM19.62 16.993V36.2h.548V24.54a.68.68 0 0 1 .676-.684.68.68 0 0 1 .676.684v11.662h3.775v-2.198a.68.68 0 0 1 .675-.684h2.889v-7.035c0-1.773 1.424-3.216 3.175-3.216h3.77v-3.18a.478.478 0 0 0-.476-.48H21.994a.478.478 0 0 0-.474.48v2.433a.68.68 0 0 1-.676.684.68.68 0 0 1-.676-.684v-2.433c0-1.019.82-1.849 1.826-1.849h13.334a1.84 1.84 0 0 1 1.827 1.85v3.179h.548v-6.075c0-.896-.72-1.625-1.605-1.625H21.225c-.885 0-1.605.729-1.605 1.625zM15.35 32.919c0 1.699 1.282 3.1 2.917 3.266v-6.533a3.203 3.203 0 0 0-1.967.945 3.284 3.284 0 0 0-.95 2.322zm31.742 4.64a4.06 4.06 0 0 1 1.014 2.691v9.298h3.705c.288-1.777 1.677-3.184 3.433-3.475v-5.038c-1.756-.292-3.145-1.699-3.433-3.475h-4.72zM58.08 52.42V34.687H26.646v1.515l25.787-.01a.68.68 0 0 1 .676.684c0 1.57 1.26 2.846 2.811 2.846a.68.68 0 0 1 .676.684v6.296a.68.68 0 0 1-.676.684c-1.55 0-2.811 1.277-2.811 2.846a.68.68 0 0 1-.676.684h-4.326v1.504h9.974zm-2.784-15.283a.692.692 0 0 1 .264-.84.675.675 0 0 1 .774.04c.233.182.32.506.215.784a.681.681 0 0 1-.658.438.676.676 0 0 1-.595-.422zm1.247 12.833a.699.699 0 0 1-.25.831c-.522.354-1.214-.181-1.015-.783a.683.683 0 0 1 .608-.468.68.68 0 0 1 .657.42zm-12.22-2.048c0 1.81-1.455 3.283-3.243 3.283-1.788 0-3.243-1.473-3.243-3.283 0-1.81 1.455-3.283 3.243-3.283 1.788 0 3.243 1.473 3.243 3.283zm-5.135 0c0 1.056.849 1.915 1.892 1.915s1.892-.859 1.892-1.915-.849-1.915-1.892-1.915-1.892.859-1.892 1.915z"/>
    </g>
</svg>
