<svg width="42" height="46" viewBox="0 0 42 46" fill="none" xmlns="http://www.w3.org/2000/svg">
<path fill-rule="evenodd" clip-rule="evenodd" d="M41.9807 10.8447C41.9807 10.6699 41.9422 10.4951 41.8652 10.3301C41.7111 10 41.4127 9.7767 41.0853 9.70874L21.4718 0.116505C21.1541 -0.038835 20.7785 -0.038835 20.4608 0.116505L0.654746 9.79612C0.269601 9.98058 0.0192572 10.3689 0 10.8058V10.8155V10.8544V35.1456C0 35.5922 0.250344 36 0.654746 36.1942L20.4608 45.8738C20.4649 45.8738 20.4672 45.8738 20.4693 45.8745C20.4706 45.875 20.4717 45.8757 20.4731 45.8768C20.4748 45.8782 20.4769 45.8804 20.4801 45.8835C20.5089 45.8932 20.5378 45.9029 20.5667 45.9223C20.569 45.9223 20.5713 45.9229 20.5736 45.9237L20.5794 45.9259C20.586 45.9287 20.5939 45.932 20.6052 45.932L20.6919 45.9612C20.6967 45.9612 20.7015 45.9636 20.7063 45.966C20.7111 45.9684 20.716 45.9709 20.7208 45.9709C20.7352 45.9757 20.7521 45.9782 20.7689 45.9806C20.7858 45.983 20.8026 45.9854 20.8171 45.9903H20.8459C20.8652 45.9903 20.8868 45.9927 20.9084 45.9951L20.9085 45.9951C20.9302 45.9976 20.9519 46 20.9711 46C21.0096 46 21.0578 46 21.0963 45.9903H21.1252C21.1541 45.9903 21.1926 45.9806 21.2215 45.9709C21.2263 45.9709 21.2311 45.9684 21.2359 45.966C21.2407 45.9636 21.2455 45.9612 21.2503 45.9612L21.337 45.932C21.341 45.932 21.345 45.9304 21.3497 45.9284C21.3563 45.9257 21.3642 45.9223 21.3755 45.9223C21.4044 45.9126 21.4333 45.9029 21.4622 45.8835L21.4674 45.8834C21.4687 45.8833 21.4697 45.8831 21.4707 45.8828C21.4735 45.8817 21.4759 45.8794 21.4814 45.8738L41.3453 36.165C41.74 35.9709 42 35.5631 42 35.1165V10.8738C41.9807 10.8641 41.9807 10.8544 41.9807 10.8447ZM20.9615 2.45631L38.1389 10.8544L31.8129 13.9515L14.6355 5.5534L20.9615 2.45631ZM3.78404 10.8544L20.9615 19.2524L29.1651 15.2427L11.9876 6.84466L3.78404 10.8544ZM2.31087 12.7282L19.8061 21.2816V42.9612L2.31087 34.4078V12.7282ZM22.1169 21.2816V42.9612L39.6699 34.3689V12.6893L32.641 16.1262V22.932C32.641 23.5728 32.121 24.0971 31.4856 24.0971C30.8501 24.0971 30.3301 23.5728 30.3301 22.932V17.2621L22.1169 21.2816Z" fill="white"/>
</svg>
