<svg xmlns="http://www.w3.org/2000/svg" width="74" height="74" viewBox="0 0 74 74">
    <g fill="none" fill-rule="evenodd">
        <circle cx="37" cy="37" r="37" fill="#F92C56"/>
        <path fill="#FFF" fill-rule="nonzero" d="M59.233 14c.424 0 .767.343.767.767v9.2a.767.767 0 0 1-.767.766h-4.6a.767.767 0 0 1-.766-.766V23.2h-.552l-1.025.613a6.92 6.92 0 0 1-6.09.497v5.79a.767.767 0 0 1-.767.767h-23a.767.767 0 0 1-.766-.767V17.833c0-.423.343-.766.766-.766h12.895l3.205-2.563A2.3 2.3 0 0 1 39.97 14h11.236c.357 0 .709.083 1.028.242l1.634.818v-.293c0-.424.343-.767.766-.767h4.6zM23.2 29.333h21.467v-7.349l-.729.728a2.3 2.3 0 0 1-3.252-3.252l.86-.86H23.2v10.733zm29.895-7.666l.772-.006v-4.887l-2.32-1.16a.781.781 0 0 0-.342-.08H39.969a.767.767 0 0 0-.48.167l-1.706 1.366h5.296l.586-.587a.767.767 0 0 1 1.084 1.084l-2.979 2.98a.767.767 0 0 0 1.084 1.084l2.04-2.038 1.534-1.534a.767.767 0 0 1 .784-.185l.843.282c.787.26 1.637.26 2.425 0l.843-.282a.768.768 0 1 1 .484 1.457l-.843.28a5.4 5.4 0 0 1-3.395 0l-.395-.13-.974.973v2.207l.517.21a5.39 5.39 0 0 0 4.784-.37l1.204-.722a.761.761 0 0 1 .39-.11zm5.372 1.533v-7.667H55.4V23.2h3.067zm-24.534-1.533a.767.767 0 0 0 0 1.533 2.295 2.295 0 0 1 .767 4.459v.908h-1.533v-.908a2.3 2.3 0 0 1-1.534-2.159h1.534a.767.767 0 1 0 .766-.767 2.295 2.295 0 0 1-.766-4.459v-.907H34.7v.907a2.3 2.3 0 0 1 1.533 2.16H34.7a.767.767 0 0 0-.767-.767zm-4.6 1.533a.767.767 0 0 1 0 1.533H27.8a.767.767 0 0 1 0-1.533h1.533zm10.734 0a.767.767 0 0 1 0 1.533h-1.534a.767.767 0 0 1 0-1.533h1.534zm5.717 27.426c.202.347.309.742.309 1.143 0 .823-.439 1.584-1.15 1.998l-10.274 5.926c-.348.204-.746.31-1.15.307H22.134c-.458 0-.906-.138-1.285-.396l-.716-.475v.104a.767.767 0 0 1-.766.767h-4.6a.767.767 0 0 1-.767-.767v-9.2c0-.423.343-.766.767-.766h4.6c.423 0 .766.343.766.766v.614a8.409 8.409 0 0 1 9.277.05l.153.103h5.904a2.3 2.3 0 0 1 2.247 1.82l4.927-2.837a2.292 2.292 0 0 1 3.143.843zM18.6 58.466V50.8h-3.067v7.667H18.6zm25.576-6.03a.775.775 0 0 0 .383-.67.74.74 0 0 0-.103-.374.762.762 0 0 0-1.04-.285l-6.43 3.707a2.282 2.282 0 0 1-1.52.586h-4.6a.767.767 0 0 1 0-1.533h4.6a.767.767 0 0 0 0-1.534h-6.133a.767.767 0 0 1-.424-.128l-.348-.23a6.882 6.882 0 0 0-7.655 0l-.348.23a.767.767 0 0 1-.425.128v4.956l1.574 1.045a.749.749 0 0 0 .427.133H33.52c.13.002.26-.032.372-.098l10.285-5.933zM43.9 33.933c.423 0 .767.344.767.767v13.8a.767.767 0 0 1-.767.767H23.967a.767.767 0 0 1-.767-.767V34.7c0-.423.343-.767.767-.767H43.9zm-9.2 1.534h-1.533v3.066H34.7v-3.066zm8.433 12.266V35.467h-6.9V39.3a.767.767 0 0 1-.766.767H32.4a.767.767 0 0 1-.767-.767v-3.833h-6.9v12.266h18.4zm-13.8-4.6a.767.767 0 0 1 0 1.534h-3.066a.767.767 0 0 1 0-1.534h3.066zm3.067 0a.767.767 0 0 1 0 1.534h-.767a.767.767 0 0 1 0-1.534h.767zm-3.067 2.3a.767.767 0 0 1 0 1.534h-3.066a.767.767 0 0 1 0-1.534h3.066zm3.067 0a.767.767 0 0 1 0 1.534h-.767a.767.767 0 0 1 0-1.534h.767z"/>
    </g>
</svg>
