<svg xmlns="http://www.w3.org/2000/svg" width="74" height="74" viewBox="0 0 74 74">
    <g fill="none" fill-rule="evenodd">
        <circle cx="37" cy="37" r="37" fill="#4BD964"/>
        <g fill="#FFF" fill-rule="nonzero">
            <path d="M29.822 36.712a.907.907 0 0 1-.829-.555.939.939 0 0 1-.068-.344.868.868 0 0 1 .068-.344.905.905 0 0 1 .194-.292.906.906 0 0 1 1.135-.112.907.907 0 0 1 .33 1.092.921.921 0 0 1-.33.404.901.901 0 0 1-.5.151zM53.52 40.744c-3.371 0-6.114-2.746-6.114-6.121 0-3.375 2.743-6.12 6.114-6.12 3.372 0 6.115 2.745 6.115 6.12s-2.743 6.12-6.115 6.12zm0-10.443a4.325 4.325 0 0 0-4.317 4.322 4.325 4.325 0 0 0 4.317 4.322 4.325 4.325 0 0 0 4.319-4.322 4.325 4.325 0 0 0-4.319-4.322z"/>
            <path d="M63 34.623c0-4.934-3.782-9-8.596-9.448v-2.797a.9.9 0 0 0-.52-.815l-11.757-5.479-.099-.039a.898.898 0 0 0-.66.039l-11.545 5.305-11.55-5.307a.898.898 0 0 0-1.024.196.932.932 0 0 0-.249.648V51.57a.9.9 0 0 0 .524.817l11.924 5.48h.001a.93.93 0 0 0 .749 0l11.547-5.306 11.381 5.303a.895.895 0 0 0 1.028-.192.93.93 0 0 0 .25-.648v-8.649C56.094 47.07 63 41.33 63 34.623zM18.797 18.302l10.128 4.653v8.42a.899.899 0 1 0 1.797 0v-8.42l10.127-4.653v32.69l-10.127 4.654V40.072a.9.9 0 1 0-1.797 0v15.574l-10.128-4.654v-32.69zm23.849 32.694V18.31l9.96 4.642v2.226c-4.8.462-8.565 4.521-8.565 9.445 0 6.634 6.828 12.373 8.566 13.726v7.288l-9.961-4.641zm10.875-4.219c-1.813-1.457-7.683-6.603-7.683-12.154 0-4.24 3.446-7.69 7.682-7.69 4.237 0 7.683 3.45 7.683 7.69 0 5.571-5.869 10.702-7.682 12.154z"/>
            <path d="M25.69 27.571a.897.897 0 0 0-1.27 0l-.56.56-.558-.56a.898.898 0 1 0-1.27 1.272l.558.559-.558.558a.9.9 0 0 0 .635 1.536c.23 0 .46-.088.635-.263l.559-.56.558.56a.895.895 0 0 0 1.27 0 .9.9 0 0 0 0-1.273l-.558-.558.559-.56a.9.9 0 0 0 0-1.27z"/>
        </g>
    </g>
</svg>
