<svg width="42" height="48" viewBox="0 0 42 48" fill="none" xmlns="http://www.w3.org/2000/svg">
<path fill-rule="evenodd" clip-rule="evenodd" d="M33.5772 2.81312C34.304 3.13615 35.0001 3.48816 35.6594 3.8699C39.7481 6.23672 42 9.43875 42 12.8858V14.281C42 16.03 41.4193 17.7155 40.3141 19.2611V36.1394C40.3141 39.3258 38.2375 42.2827 34.4672 44.4654C30.8552 46.5562 26.0724 47.7078 21 47.7078C15.9276 47.7078 11.1448 46.5562 7.53281 44.4654C3.76235 42.2828 1.68589 39.3258 1.68589 36.1394V19.2613C0.580713 17.7155 0 16.03 0 14.2811V12.8859C0 9.43887 2.25186 6.23697 6.34056 3.87002C6.99988 3.48828 7.69604 3.13627 8.4228 2.81324C8.60593 1.84723 8.94799 1.02246 9.58189 0.509057C9.985 0.182468 10.6878 -0.157019 11.747 0.0783126L13.1566 0.400603C13.5952 0.500091 14.082 0.683713 14.5926 0.928748C16.6372 0.542957 18.7928 0.341525 21 0.341525C23.2073 0.341525 25.3631 0.542957 27.4077 0.928748C27.9187 0.683591 28.4059 0.499723 28.845 0.400112L30.2476 0.079418C31.3126 -0.157264 32.015 0.182468 32.4181 0.508934C33.052 1.02234 33.3941 1.8471 33.5772 2.81312ZM39.5564 10.2451C38.7362 8.47249 37.0943 6.8291 34.7364 5.46428C34.4241 5.28348 34.1018 5.11042 33.7718 4.944C33.7856 5.51783 33.7804 6.09879 33.775 6.66182L33.7744 6.71966L33.7744 6.72177C33.7721 6.96719 33.7699 7.20579 33.7699 7.43389V7.53141C33.7699 8.54299 33.5248 9.46774 33.0633 10.2451H39.5564ZM31.4149 18.5339C31.5324 19.091 31.7023 19.897 31.6776 20.2645C31.6716 20.264 31.6653 20.2636 31.6589 20.263C31.082 20.2153 29.3447 19.2305 27.1394 16.7903C25.5874 15.0731 24.3347 13.2052 23.5324 11.4426C23.5938 11.4796 23.6563 11.5168 23.7193 11.5543C24.3015 11.9005 25.083 12.3235 25.9196 12.7451C26.8663 13.2222 29.1865 14.3493 31.1217 14.9495C30.9007 16.0948 31.1733 17.3882 31.4148 18.5334L31.4148 18.5334L31.4149 18.5339ZM16.0806 12.7452C15.1339 13.2224 12.814 14.3493 10.8785 14.9496C11.0995 16.095 10.8268 17.3885 10.5852 18.534C10.4677 19.0911 10.2978 19.8971 10.3225 20.2646L10.3402 20.2633C10.9182 20.2156 12.6556 19.2307 14.8609 16.7904C16.4129 15.0732 17.6656 13.2053 18.4679 11.4427C18.4132 11.4757 18.3577 11.5087 18.3016 11.5421L18.3003 11.5428L18.2809 11.5544C17.6987 11.9006 16.9173 12.3235 16.0806 12.7452ZM18.5295 8.37607C18.5295 7.39901 19.661 6.5735 21.0001 6.5735C22.3393 6.5735 23.4707 7.39901 23.4707 8.37607C23.4707 9.35314 22.3393 10.1786 21.0001 10.1786C19.661 10.1786 18.5295 9.35314 18.5295 8.37607ZM31.2587 1.9407C31.206 1.89795 31.0662 1.78471 30.653 1.87671L29.2542 2.19666C27.7851 2.53001 25.437 4.20029 23.9241 5.69986C24.7775 6.3663 25.3131 7.31917 25.3131 8.3762C25.3131 8.8234 25.2169 9.25169 25.0418 9.64792L28.1637 10.5749C29.1797 10.7995 30.1236 10.6159 30.8248 10.0567C31.536 9.48948 31.9276 8.59274 31.9276 7.53153V7.43401C31.9276 7.18996 31.93 6.93418 31.9325 6.67091V6.67074V6.67057V6.67039V6.67022V6.67004V6.66986V6.66968L31.9325 6.66882L31.9327 6.64425L31.9327 6.64333C31.9475 5.10018 31.9721 2.51847 31.2587 1.9407ZM24.973 2.41787C23.9312 3.17717 22.9389 4.0491 22.1789 4.87079C22.094 4.8504 22.0081 4.83186 21.9213 4.81577V2.19642C22.9565 2.22393 23.9757 2.29922 24.973 2.41787ZM20.0789 4.81577V2.19642C19.0439 2.22393 18.0247 2.29922 17.0274 2.41787C18.0692 3.17717 19.0613 4.0491 19.8214 4.87079C19.9062 4.85028 19.992 4.83186 20.0789 4.81577ZM10.7416 1.9407L10.7417 1.94061C10.7945 1.89792 10.9342 1.78489 11.3418 1.8756L12.7473 2.19703C14.2154 2.53013 16.5631 4.20029 18.076 5.69986C17.2227 6.3663 16.687 7.31917 16.687 8.3762C16.687 8.82377 16.7834 9.25255 16.9588 9.6489L13.8364 10.5747C12.8205 10.7993 11.8765 10.6159 11.1753 10.0566C10.4643 9.48948 10.0726 8.59261 10.0726 7.53141V7.43389C10.0726 7.18901 10.0701 6.93234 10.0676 6.66812L10.0674 6.64413L10.0674 6.6427V6.64269C10.0528 5.09961 10.0283 2.51841 10.7416 1.9407ZM8.22849 4.944C7.89834 5.11042 7.57617 5.28348 7.26383 5.46428C4.90597 6.8291 3.26405 8.47249 2.44383 10.2451H8.93694C8.47549 9.46774 8.23033 8.54287 8.23033 7.53141V7.43389C8.23033 7.18726 8.22787 6.92834 8.2253 6.66182C8.21989 6.09879 8.21449 5.51771 8.22849 4.944ZM20.0789 45.8516C15.6734 45.7232 11.5753 44.6765 8.45584 42.8709C5.27837 41.0314 3.52837 38.6408 3.52837 36.1393V21.2876C4.3368 22.007 5.27579 22.6806 6.34068 23.297C10.0518 25.4453 14.9004 26.6817 20.0789 26.8131V45.8516ZM1.84249 14.281C1.84249 17.043 3.76776 19.6787 7.26383 21.7025C10.7016 23.6926 15.2227 24.8413 20.0787 24.9705V12.337C19.1936 14.2366 17.8615 16.2178 16.2277 18.0256C14.5279 19.9063 12.1288 21.9642 10.4926 22.0992C10.4144 22.1059 10.3395 22.1088 10.2674 22.1088C9.56899 22.1088 9.15667 21.8177 8.92883 21.5594C8.23131 20.7693 8.4867 19.5575 8.7824 18.1546L8.78255 18.1539C8.99295 17.156 9.23123 16.0252 9.05804 15.2434C8.93841 14.7039 9.17116 13.5223 10.0244 13.2813C10.6975 13.0913 11.4827 12.8011 12.2931 12.4638C11.8383 12.4005 11.4032 12.273 10.9942 12.0875H1.89677C1.86103 12.3521 1.84249 12.6183 1.84249 12.8858V14.281ZM38.4719 36.1393C38.4719 38.6407 36.7219 41.0314 33.5444 42.8709C30.4249 44.6767 26.3269 45.7234 21.9213 45.8516V26.813C27.0997 26.6816 31.9483 25.4452 35.6596 23.2969C36.7245 22.6804 37.6636 22.0069 38.4719 21.2875V36.1393ZM34.7363 21.7025C38.2324 19.6787 40.1576 17.043 40.1576 14.281H40.1575V12.8858C40.1575 12.6183 40.139 12.3521 40.1032 12.0875H31.0058C30.5968 12.2729 30.1617 12.4004 29.7069 12.4638C30.5172 12.8009 31.3025 13.0913 31.9755 13.2813C32.8288 13.5223 33.0616 14.7039 32.942 15.2434C32.7688 16.0252 33.0071 17.156 33.2175 18.1539L33.2175 18.154C33.5134 19.5572 33.7689 20.7692 33.0712 21.5594C32.8433 21.8177 32.431 22.1088 31.732 22.1088C31.6598 22.1088 31.5846 22.1057 31.5063 22.0991C29.8711 21.9642 27.472 19.9064 25.7722 18.0256C24.1384 16.2178 22.8063 14.2366 21.9212 12.337V24.9704C26.7774 24.8412 31.2986 23.6925 34.7363 21.7025Z" fill="white"/>
</svg>
