<svg xmlns="http://www.w3.org/2000/svg" width="74" height="74" viewBox="0 0 74 74">
    <g fill="none" fill-rule="evenodd">
        <circle cx="37" cy="37" r="37" fill="#1A7AFE"/>
        <path fill="#FFF" fill-rule="nonzero" d="M59 33.705h-2.132v-9.81a4.27 4.27 0 0 0-4.265-4.265h-2.889l-2.955-5.314a2.559 2.559 0 0 0-3.48-.994L31.934 19.63h-12.67A4.27 4.27 0 0 0 15 23.895v29.286a4.27 4.27 0 0 0 4.265 4.265h33.338a4.27 4.27 0 0 0 4.265-4.265v-8.6H59V33.704zm-6.397-12.369c1.313 0 2.386.998 2.53 2.275h-3.205l-1.264-2.275h1.939zm-8.495-6.523a.87.87 0 0 1 1.16.331l4.708 8.466H28.288l15.82-8.797zm11.053 38.368c0 1.411-1.148 2.56-2.559 2.56H19.265a2.562 2.562 0 0 1-2.56-2.56V23.895c0-1.41 1.15-2.559 2.56-2.559h9.603l-4.091 2.275h-4.979a.853.853 0 1 0 0 1.706h35.363v8.389h-6.237a5.261 5.261 0 0 0-5.255 5.254v.367a5.261 5.261 0 0 0 5.255 5.254h6.237v8.6zm2.133-10.307h-8.37a3.552 3.552 0 0 1-3.549-3.548v-.367a3.552 3.552 0 0 1 3.549-3.548h8.37v7.463zm-5.758-3.661a1.883 1.883 0 1 1-3.765 0 1.883 1.883 0 0 1 3.765 0z"/>
    </g>
</svg>
