<svg xmlns="http://www.w3.org/2000/svg" width="74" height="74" viewBox="0 0 74 74">
    <g fill="none" fill-rule="evenodd">
        <circle cx="37" cy="37" r="37" fill="#30BFFB"/>
        <g fill="#FFF" fill-rule="nonzero">
            <path d="M37.231 12.063V11l-2.092 1.517 2.092 1.517v-.828c12.76.127 23.1 10.533 23.1 23.32 0 12.864-10.465 23.331-23.331 23.331S13.669 49.39 13.669 36.526h-1.142C12.527 50.02 23.504 61 37 61c13.496 0 24.473-10.98 24.473-24.474 0-13.416-10.854-24.335-24.242-24.463z"/>
            <path d="M36.916 57.841v1.043l2.098-1.517-2.098-1.517v.85c-11.086-.044-20.092-9.077-20.092-20.171 0-11.125 9.049-20.176 20.176-20.176 11.124 0 20.173 9.051 20.173 20.176h1.144C58.317 24.773 48.76 15.21 37 15.21s-21.317 9.564-21.317 21.319c0 11.725 9.52 21.267 21.233 21.312z"/>
            <path d="M32.507 41.017c.032.033.064.067.093.1l.006-.007c1.218 1.173 2.658 2.9 5.003 4.467 4.938 3.294 8.73 2.376 10.961 1.152 3.847-2.12 5.571-6.652 5.571-10.202 0-9.454-7.69-17.146-17.142-17.146-9.456 0-17.146 7.692-17.146 17.146 0 9.453 7.69 17.143 17.146 17.143a1.056 1.056 0 0 0 0-2.111c-8.29 0-15.032-6.745-15.032-15.03 0-8.289 6.744-15.032 15.032-15.032 8.287 0 15.028 6.743 15.028 15.032 0 3.462-1.844 6.897-4.481 8.348a6.484 6.484 0 0 1-3.106.802 4.984 4.984 0 0 0 1.671-1.61c.088-.126.193-.238.252-.378.343-.828.377-1.765.577-2.641.26-1.12-4.886-3.3-5.331-1.906-.165.517-.41 2.149-.738 2.58-.284.386-.995.202-1.445-.177-1.175-.997-2.48-2.468-3.63-3.628l.003-.002c-.032-.03-.069-.063-.098-.093l-.095-.097v.002c-1.16-1.146-2.629-2.455-3.63-3.63-.377-.446-.563-1.156-.173-1.446.43-.326 2.058-.572 2.578-.732 1.393-.447-.784-5.594-1.905-5.337-.876.206-1.815.236-2.64.58-.145.059-.255.169-.38.252-2.94 1.864-3.317 6.385-.449 9.753a83.008 83.008 0 0 0 3.407 3.75l-.008.005c.034.032.071.06.101.093z"/>
        </g>
    </g>
</svg>
