<?xml version="1.0" encoding="UTF-8"?>
<svg width="20px" height="17px" viewBox="0 0 20 17" version="1.1" xmlns="http://www.w3.org/2000/svg" xmlns:xlink="http://www.w3.org/1999/xlink">
    <!-- Generator: Sketch 55.1 (78136) - https://sketchapp.com -->
    <title>159841</title>
    <desc>Created with Sketch.</desc>
    <g id="Mobile" stroke="none" stroke-width="1" fill="none" fill-rule="evenodd">
        <g id="Catalog-Mobile--Copy" transform="translate(-20.000000, -235.000000)" fill="#333333" fill-rule="nonzero">
            <g id="Group-2" transform="translate(5.000000, 224.000000)">
                <g id="Group" transform="translate(15.000000, 11.000000)">
                    <g id="159841">
                        <path d="M2.15102041,4.48784722 C0.967346939,4.48784722 1.11022302e-14,3.47781636 1.11022302e-14,2.24710648 C1.11022302e-14,1.0163966 0.963265306,0.0106095679 2.15102041,0.0106095679 C3.33877551,0.0106095679 4.30204082,1.02064043 4.30204082,2.25135031 C4.30204082,3.48206019 3.33877551,4.48784722 2.15102041,4.48784722 Z M2.15102041,1.05034722 C1.51836735,1.05034722 1,1.58931327 1,2.24710648 C1,2.90489969 1.51836735,3.44386574 2.15102041,3.44386574 C2.78367347,3.44386574 3.30204082,2.90489969 3.30204082,2.24710648 C3.30204082,1.58931327 2.7877551,1.05034722 2.15102041,1.05034722 Z M2.15102041,10.5634645 C0.967346939,10.5634645 1.11022302e-14,9.5619213 1.11022302e-14,8.32696759 C1.11022302e-14,7.09201389 0.963265306,6.09047068 2.15102041,6.09047068 C3.33877551,6.09047068 4.30204082,7.09625772 4.30204082,8.32696759 C4.30204082,9.55767747 3.33877551,10.5634645 2.15102041,10.5634645 Z M2.15102041,7.13020833 C1.51836735,7.13020833 1,7.66493056 1,8.32696759 C1,8.98900463 1.51836735,9.52372685 2.15102041,9.52372685 C2.78367347,9.52372685 3.30204082,8.9847608 3.30204082,8.32696759 C3.30204082,7.66917438 2.7877551,7.13020833 2.15102041,7.13020833 Z M2.15102041,16.6433256 C0.967346939,16.6433256 1.11022302e-14,15.6375386 1.11022302e-14,14.4068287 C1.11022302e-14,13.1761188 0.967346939,12.1703318 2.15102041,12.1703318 C3.33469388,12.1703318 4.30204082,13.171875 4.30204082,14.4068287 C4.30204082,15.6375386 3.33877551,16.6433256 2.15102041,16.6433256 Z M2.15102041,13.2058256 C1.51836735,13.2058256 1,13.7447917 1,14.4025849 C1,15.0603781 1.51836735,15.5993441 2.15102041,15.5993441 C2.78367347,15.5993441 3.30204082,15.0646219 3.30204082,14.4025849 C3.30204082,13.7447917 2.7877551,13.2058256 2.15102041,13.2058256 Z M7.17959184,2.76909722 C6.90204082,2.76909722 6.67755102,2.53568673 6.67755102,2.24710648 C6.67755102,1.95852623 6.90204082,1.72511574 7.17959184,1.72511574 L19.4857143,1.72511574 C19.7632653,1.72511574 19.9877551,1.95852623 19.9877551,2.24710648 C19.9877551,2.53568673 19.7632653,2.76909722 19.4857143,2.76909722 L7.17959184,2.76909722 Z M7.17959184,8.84895833 C6.90204082,8.84895833 6.67755102,8.61554784 6.67755102,8.32696759 C6.67755102,8.03838735 6.90204082,7.80497685 7.17959184,7.80497685 L19.4857143,7.80497685 C19.7632653,7.80497685 19.9877551,8.03838735 19.9877551,8.32696759 C19.9877551,8.61554784 19.7632653,8.84895833 19.4857143,8.84895833 L7.17959184,8.84895833 Z M7.17959184,14.9245756 C6.90204082,14.9245756 6.67755102,14.6911651 6.67755102,14.4025849 C6.67755102,14.1140046 6.90204082,13.8805941 7.17959184,13.8805941 L19.4857143,13.8805941 C19.7632653,13.8805941 19.9877551,14.1140046 19.9877551,14.4025849 C19.9877551,14.6911651 19.7632653,14.9245756 19.4857143,14.9245756 L7.17959184,14.9245756 Z" id="Combined-Shape"></path>
                    </g>
                </g>
            </g>
        </g>
    </g>
</svg>