<svg xmlns="http://www.w3.org/2000/svg" width="12" height="12" viewBox="0 0 12 12">
    <path fill-rule="nonzero" d="M1.959 3.686c.215 0 .392.175.392.391v7.052a.392.392 0 0 1-.392.392H.392A.392.392 0 0 1 0 11.13V4.077c0-.216.176-.391.392-.391h1.567zm9.063 0c1.044.176 1.343 1.593.45 2.165a1.186 1.186 0 0 1-.393 1.568 1.186 1.186 0 0 1-.391 1.567c.434.768-.143 1.752-1.024 1.752h-6.53V4.469s1.89-1.711 2.498-2.304c.349-.34.574-.794.665-1.27.035-.189.025-.387.125-.556a.654.654 0 0 1 .4-.3c.289-.072.648-.003.906.134.79.422.974 1.61.69 2.387l-.413 1.126s2.954-.011 3.017 0z"/>
</svg>
