<svg width="24" height="22" viewBox="0 0 24 22" fill="none" xmlns="http://www.w3.org/2000/svg">
<path d="M21.6774 0.161316H2.32258C1.04516 0.161316 0 1.20648 0 2.4839C0 3.76132 1.04516 4.80648 2.32258 4.80648H21.6774C22.9548 4.80648 24 3.76132 24 2.4839C24 1.20648 22.9548 0.161316 21.6774 0.161316Z" fill="#2B2D30"/>
<path d="M21.6774 8.67743H2.32258C1.04516 8.67743 0 9.72259 0 11C0 12.2774 1.04516 13.3226 2.32258 13.3226H21.6774C22.9548 13.3226 24 12.2774 24 11C24 9.72259 22.9548 8.67743 21.6774 8.67743Z" fill="#2B2D30"/>
<path d="M21.6774 17.1936H2.32258C1.04516 17.1936 0 18.2388 0 19.5162C0 20.7936 1.04516 21.8388 2.32258 21.8388H21.6774C22.9548 21.8388 24 20.7936 24 19.5162C24 18.2388 22.9548 17.1936 21.6774 17.1936Z" fill="#2B2D30"/>
</svg>
