<svg xmlns="http://www.w3.org/2000/svg" width="20" height="20" viewBox="0 0 20 20">
    <path fill="#000" fill-rule="nonzero" d="M14.4 0a5.495 5.495 0 0 1 5.49 5.489V14.4a5.495 5.495 0 0 1-5.49 5.489H5.49A5.495 5.495 0 0 1 0 14.4V5.49A5.495 5.495 0 0 1 5.489 0H14.4zm3.725 14.4V5.49a3.729 3.729 0 0 0-3.724-3.724H5.489a3.728 3.728 0 0 0-3.724 3.724V14.4a3.728 3.728 0 0 0 3.724 3.724H14.4a3.728 3.728 0 0 0 3.724-3.724zm-8.18-9.58a5.13 5.13 0 0 1 5.125 5.125 5.13 5.13 0 0 1-5.125 5.125A5.13 5.13 0 0 1 4.82 9.945 5.13 5.13 0 0 1 9.945 4.82zm0 8.485a3.364 3.364 0 0 0 3.36-3.36 3.364 3.364 0 0 0-3.36-3.36 3.364 3.364 0 0 0-3.36 3.36 3.364 3.364 0 0 0 3.36 3.36zm5.34-9.981a1.3 1.3 0 0 1 .915.378 1.3 1.3 0 0 1 .379.916c0 .34-.138.674-.379.915-.241.24-.574.379-.915.379-.34 0-.674-.139-.914-.379a1.305 1.305 0 0 1-.38-.915 1.3 1.3 0 0 1 1.294-1.294z" opacity=".5"/>
</svg>
