<svg xmlns="http://www.w3.org/2000/svg" width="48" height="48" viewBox="0 0 48 48">
    <path fill="#B2B2B2" fill-rule="nonzero" d="M24 0C10.744 0 0 10.745 0 24c0 13.253 10.745 24 24 24 13.254 0 24-10.747 24-24C48 10.745 37.253 0 24 0zm-.753 16.025h17.898c.122 0 .24.015.356.036l-10.023 5.763-8.475-5.774c.081-.01.16-.025.244-.025zM9.692 29.65v-2.49h7.987l-.098.808-.017.149v.15c0 .483.08.947.223 1.383H9.692zm8.275-4.875H6.994v-2.49h11.274l-.301 2.49zm.844-6.98l-.154 1.274H4.574v-2.49h14.461a4.413 4.413 0 0 0-.224 1.216zM39.9 30.216H22.002c-.536 0-1.02-.216-1.373-.566a1.98 1.98 0 0 1-.233-.282l-.007-.007a1.983 1.983 0 0 1-.165-.303c-.004-.01-.011-.02-.016-.03a1.916 1.916 0 0 1-.098-.313c-.004-.019-.013-.035-.017-.054a1.968 1.968 0 0 1-.04-.394l.664-5.482.06-.5.522-4.311c0-.123.014-.242.037-.359.002-.012 0-.026.004-.039l.004.004c.056-.266.162-.513.314-.728v.941l9.238 6.261c.013.009.026.014.04.021.012.008.026.015.04.022.073.038.148.068.224.088l.024.005c.084.02.17.032.254.032h.002c.084 0 .17-.012.253-.032l.024-.005c.076-.02.151-.05.224-.088l.041-.022.04-.02L43.067 17.7c.013.09.028.18.028.274L41.85 28.267a1.95 1.95 0 0 1-1.951 1.95z"/>
</svg>
