<svg xmlns="http://www.w3.org/2000/svg" width="16" height="16" viewBox="0 0 16 16">
    <path fill-rule="nonzero" d="M15.93 12.756l-.079-.243c-.188-.56-.806-1.143-1.375-1.299l-2.103-.575c-.57-.154-1.382.054-1.8.473l-.76.76a8.077 8.077 0 0 1-5.68-5.68l.76-.761c.417-.417.626-1.23.471-1.8l-.573-2.104C4.637.958 4.05.34 3.491.152l-.24-.08c-.56-.187-1.361.002-1.778.42L.334 1.633c-.203.201-.333.78-.333.781a13.456 13.456 0 0 0 3.934 9.654 13.442 13.442 0 0 0 9.62 3.932c.02 0 .615-.127.818-.33l1.14-1.139c.416-.415.604-1.215.418-1.774z"/>
</svg>
