<svg xmlns="http://www.w3.org/2000/svg" width="48" height="48" viewBox="0 0 48 48">
    <g fill="none" fill-rule="evenodd">
        <rect width="48" height="48" fill="#7E37B1" rx="24"/>
        <g fill="#FFF" fill-rule="nonzero">
            <path d="M37.353 18.014l-.009-.033c-.672-2.72-3.705-5.638-6.49-6.245l-.032-.007a36.07 36.07 0 0 0-13.577 0l-.032.007c-2.784.607-5.817 3.525-6.49 6.245l-.008.033a26.574 26.574 0 0 0 0 11.448l.007.033c.645 2.603 3.452 5.388 6.133 6.153v3.036c0 1.099 1.34 1.639 2.1.846l3.077-3.198a35.83 35.83 0 0 0 2.002.059c2.268 0 4.536-.215 6.788-.645l.032-.006c2.785-.607 5.818-3.525 6.49-6.245l.009-.033c.831-3.798.831-7.65 0-11.448zm-2.434 10.897c-.45 1.774-2.752 3.98-4.582 4.387a33.62 33.62 0 0 1-7.221.584.171.171 0 0 0-.128.051l-2.246 2.306-2.389 2.452a.28.28 0 0 1-.481-.194v-5.029a.173.173 0 0 0-.141-.17h-.001c-1.83-.407-4.132-2.613-4.582-4.387a24.115 24.115 0 0 1 0-10.346c.45-1.775 2.752-3.98 4.582-4.388a33.593 33.593 0 0 1 12.607 0c1.83.408 4.133 2.613 4.582 4.388a24.09 24.09 0 0 1 0 10.346z"/>
            <path d="M28.014 31.232c-.281-.085-.55-.143-.798-.246-2.58-1.07-4.954-2.45-6.835-4.568-1.07-1.203-1.906-2.562-2.614-4-.335-.682-.618-1.39-.906-2.095-.263-.642.124-1.305.531-1.789.383-.454.875-.801 1.408-1.057.416-.2.827-.085 1.13.267.657.763 1.26 1.564 1.75 2.448.3.543.217 1.208-.327 1.578-.133.09-.253.195-.377.297-.108.089-.21.179-.284.3a.82.82 0 0 0-.054.72c.671 1.845 1.803 3.28 3.66 4.052.297.124.596.268.938.228.574-.067.76-.696 1.161-1.024.393-.322.895-.326 1.318-.058.423.268.833.555 1.24.846.401.285.8.564 1.169.889.355.313.477.723.277 1.147-.366.777-.898 1.423-1.667 1.836-.216.116-.475.154-.72.23-.281-.086.245-.076 0 0zM24.04 16.588c3.375.095 6.147 2.334 6.74 5.67.102.568.138 1.15.183 1.726.019.243-.119.474-.38.477-.271.003-.393-.223-.41-.466-.035-.48-.06-.962-.125-1.438-.35-2.514-2.354-4.594-4.856-5.04-.376-.067-.762-.085-1.143-.125-.241-.025-.557-.04-.61-.34-.045-.25.167-.45.406-.464.065-.003.13 0 .196 0 3.374.095-.065 0 0 0z"/>
            <path d="M29.169 23.236c-.006.042-.009.14-.033.234-.09.339-.604.381-.722.04a1.02 1.02 0 0 1-.04-.327c-.001-.714-.157-1.428-.517-2.05a3.816 3.816 0 0 0-1.6-1.502 4.603 4.603 0 0 0-1.276-.391c-.192-.032-.387-.051-.58-.078-.234-.033-.36-.182-.348-.413.01-.216.168-.371.404-.358.774.044 1.522.211 2.21.576 1.4.741 2.2 1.911 2.434 3.474.01.07.027.141.033.212.013.176.021.351.035.583-.006.042-.014-.232 0 0z"/>
            <path d="M27.07 23.154c-.282.005-.433-.151-.462-.41-.02-.18-.037-.363-.08-.539a1.517 1.517 0 0 0-.56-.878 1.46 1.46 0 0 0-.455-.22c-.207-.06-.422-.044-.629-.094-.224-.055-.348-.237-.313-.447a.405.405 0 0 1 .428-.326c1.308.094 2.243.77 2.376 2.31.01.11.02.224-.003.328-.042.178-.173.267-.302.276-.282.005.129-.009 0 0z"/>
        </g>
    </g>
</svg>
