<svg xmlns="http://www.w3.org/2000/svg" width="31" height="18" viewBox="0 0 31 18">
    <path fill="#000" fill-rule="nonzero" d="M30.685 15.804a2.097 2.097 0 0 0-.104-.2c-.536-.958-1.558-2.134-3.068-3.529l-.032-.032-.016-.015-.016-.016h-.016c-.686-.65-1.12-1.087-1.301-1.31-.333-.426-.407-.857-.225-1.294.128-.33.61-1.027 1.445-2.092.44-.564.787-1.016 1.044-1.357 1.853-2.449 2.656-4.014 2.41-4.695l-.096-.16c-.065-.095-.23-.183-.498-.263-.268-.08-.61-.093-1.028-.04l-4.626.032c-.075-.027-.182-.024-.321.008l-.21.048-.08.04-.063.048a.712.712 0 0 0-.177.168c-.064.08-.118.173-.16.279a26.011 26.011 0 0 1-1.72 3.593c-.395.66-.76 1.232-1.092 1.717-.331.484-.61.841-.835 1.07a5.815 5.815 0 0 1-.61.55c-.182.14-.321.198-.417.176a11.827 11.827 0 0 1-.274-.064 1.064 1.064 0 0 1-.361-.39 1.745 1.745 0 0 1-.185-.624 6.828 6.828 0 0 1-.056-.646c-.005-.181-.003-.437.008-.767s.016-.554.016-.67c0-.405.008-.845.024-1.318l.04-1.126c.011-.277.016-.57.016-.879 0-.308-.019-.55-.056-.726a2.476 2.476 0 0 0-.168-.511.862.862 0 0 0-.33-.384A1.862 1.862 0 0 0 17.01.21C16.442.082 15.72.013 14.84.002 12.85-.019 11.57.11 11.002.386a2.162 2.162 0 0 0-.61.479c-.193.234-.22.362-.08.383.642.096 1.097.324 1.365.686l.096.192c.075.139.15.384.225.735.075.351.123.74.145 1.165.053.778.053 1.443 0 1.997-.054.553-.105.985-.153 1.293-.048.309-.12.56-.217.75-.096.192-.16.31-.193.352a.276.276 0 0 1-.08.08 1.21 1.21 0 0 1-.433.08c-.15 0-.332-.075-.547-.224a3.845 3.845 0 0 1-.666-.615 8.22 8.22 0 0 1-.78-1.094 19.054 19.054 0 0 1-.899-1.66l-.257-.464A39.75 39.75 0 0 1 7.26 3.22c-.279-.57-.525-1.12-.739-1.653a1.053 1.053 0 0 0-.385-.511l-.08-.048a1.101 1.101 0 0 0-.258-.136A1.712 1.712 0 0 0 5.43.768L1.029.8c-.45 0-.756.101-.916.304L.048 1.2A.514.514 0 0 0 0 1.455c0 .117.032.261.096.431A52.572 52.572 0 0 0 2.192 6.23C2.947 7.625 3.603 8.748 4.16 9.6a39.785 39.785 0 0 0 1.702 2.41c.579.757.961 1.241 1.149 1.454.187.213.334.373.442.48l.401.382c.257.256.634.562 1.132.919.498.356 1.05.708 1.655 1.054a9.004 9.004 0 0 0 2.112.846 7.343 7.343 0 0 0 2.345.264h1.847c.375-.032.659-.15.851-.352l.064-.08c.043-.063.084-.162.12-.295.038-.133.057-.28.057-.439-.011-.458.024-.87.104-1.237.08-.367.171-.644.274-.83.101-.187.217-.344.345-.472.128-.127.22-.205.273-.231.054-.027.096-.045.128-.056.257-.085.56-.003.908.248.348.25.675.559.98.926.305.367.672.78 1.1 1.237.428.458.803.799 1.124 1.023l.321.191c.215.128.493.245.836.352.342.106.642.133.9.08l4.11-.064c.407 0 .724-.067.948-.2.225-.133.359-.28.402-.44.043-.159.045-.34.008-.543a1.995 1.995 0 0 0-.113-.423z" opacity=".5"/>
</svg>
