<?xml version="1.0" encoding="UTF-8"?>
<svg width="48px" height="48px" viewBox="0 0 48 48" version="1.1" xmlns="http://www.w3.org/2000/svg" xmlns:xlink="http://www.w3.org/1999/xlink">
    <!-- Generator: Sketch 55.1 (78136) - https://sketchapp.com -->
    <title>whatsapp</title>
    <desc>Created with Sketch.</desc>
    <g id="Symbols" stroke="none" stroke-width="1" fill="none" fill-rule="evenodd">
        <g id="footer" transform="translate(-661.000000, -219.000000)">
            <g id="whatsapp" transform="translate(661.000000, 219.000000)">
                <g>
                    <rect id="Rectangle-Copy-23" fill="#2CB742" x="0" y="0" width="48" height="48" rx="24"></rect>
                    <path d="M24,10 C16.3104248,10 10,16.3104248 10,24 C10,26.5378418 10.6842346,29.0083923 11.981781,31.1698303 L10,38 L16.8301697,36.018219 C18.9916077,37.3157654 21.4621582,38 24,38 C31.6895752,38 38,31.6895752 38,24 C38,16.3104248 31.6895752,10 24,10 Z M32.7529908,29.9154358 L32.101654,30.5667725 C31.1800842,31.4883423 29.06073,31.4152832 27.6988831,31.1523132 C23.1707154,30.2777405 17.891449,25.160614 16.8733215,20.7292175 C16.3691712,18.5340271 16.647522,16.6255188 17.3755493,15.8972779 L18.026886,15.2459411 C18.3864135,14.8866272 18.970459,14.8870544 19.3295593,15.2459411 L21.9353333,17.8519287 C22.1092224,18.0258178 22.2044983,18.2563171 22.2044983,18.5030518 C22.2044983,18.7497864 22.1092224,18.9804993 21.9353333,19.1537475 L21.2842102,19.8057251 C20.5664368,20.5252075 20.5664368,21.6939392 21.2842102,22.4117126 L25.5872193,26.6581116 C26.3071289,27.3780212 27.472229,27.3788757 28.1932068,26.6581116 L28.8445435,26.0069885 C29.1807861,25.6688232 29.8088379,25.6677551 30.1478577,26.0069885 L32.7529908,28.6121216 C33.1067505,28.964386 33.1202087,29.5480042 32.7529908,29.9154358 L32.7529908,29.9154358 Z" id="Shape" fill="#FFFFFF" fill-rule="nonzero"></path>
                </g>
                <g id="1051323" transform="translate(10.000000, 10.000000)"></g>
            </g>
        </g>
    </g>
</svg>