<svg xmlns="http://www.w3.org/2000/svg" width="100" height="82" viewBox="0 0 100 82">
    <defs>
        <linearGradient id="a" x1="50%" x2="50%" y1="100%" y2="0%">
            <stop offset="0%" stop-color="#FF5508"/>
            <stop offset="100%" stop-color="#FFDE00"/>
        </linearGradient>
    </defs>
    <path fill="url(#a)" fill-rule="nonzero" d="M36.492 46.45a4.25 4.25 0 1 1 0-8.5 4.25 4.25 0 0 1 0 8.5zm27 17.25a4.25 4.25 0 1 1 0-8.5 4.25 4.25 0 0 1 0 8.5zm35.042-7.25c2.354 3.23 1.354 7.771-2.125 9.688l-2.27 1.271a6.605 6.605 0 0 0-3.293 6.98l.48 2.562c.729 3.916-2.146 7.583-6.125 7.812l-2.605.146a6.579 6.579 0 0 0-6 4.854l-.687 2.521c-1.063 3.833-5.23 5.896-8.917 4.375l-2.416-1a6.624 6.624 0 0 0-7.521 1.77l-1.709 1.96c-2.604 3.02-7.25 3.04-9.916.082l-1.73-1.937a6.602 6.602 0 0 0-7.541-1.667l-2.396 1.021c-3.667 1.583-7.875-.396-8.979-4.229l-.73-2.5a6.641 6.641 0 0 0-6.083-4.77l-2.604-.105c-3.979-.167-6.916-3.792-6.25-7.708l.438-2.563a6.603 6.603 0 0 0-3.396-6.937l-2.292-1.23C.347 64.951-.716 60.43 1.576 57.18l1.5-2.125a6.633 6.633 0 0 0-.063-7.73l-1.542-2.104c-2.354-3.208-1.354-7.75 2.125-9.687l2.271-1.27a6.605 6.605 0 0 0 3.292-6.98l-.48-2.563c-.728-3.916 2.147-7.583 6.126-7.812l2.604-.146a6.579 6.579 0 0 0 6-4.854l.687-2.52c1.063-3.834 5.23-5.897 8.917-4.376l2.417 1a6.624 6.624 0 0 0 7.52-1.77l1.709-1.959c2.625-3.02 7.27-3.042 9.917-.083l1.729 1.937a6.602 6.602 0 0 0 7.541 1.667l2.396-1.021c3.667-1.583 7.875.396 8.98 4.23l.729 2.5a6.641 6.641 0 0 0 6.083 4.77l2.604.104c3.98.167 6.917 3.792 6.25 7.708l-.437 2.563a6.603 6.603 0 0 0 3.395 6.937l2.292 1.23c3.521 1.895 4.583 6.416 2.292 9.666l-1.5 2.125a6.633 6.633 0 0 0 .062 7.73l1.542 2.104zM26.221 42.2c0 5.646 4.584 10.25 10.25 10.25 5.667 0 10.25-4.583 10.25-10.25 0-5.666-4.583-10.25-10.25-10.25a10.243 10.243 0 0 0-10.25 10.25zm12.23 26.438l26.895-32.396a2.507 2.507 0 0 0-.333-3.52 2.507 2.507 0 0 0-3.52.333L34.595 65.45a2.507 2.507 0 0 0 .334 3.52 2.507 2.507 0 0 0 3.52-.333zm25.041 1.063c5.667 0 10.25-4.584 10.25-10.25 0-5.667-4.583-10.25-10.25-10.25a10.243 10.243 0 0 0-10.25 10.25c0 5.666 4.584 10.25 10.25 10.25z"/>
</svg>
